# Generated by procedural_engine
v -2.843922 -4.893805 0.158000
v -0.327664 -4.893805 0.158000
v -0.327664 4.628319 0.158000
v -2.843922 4.628319 0.158000
v -2.843922 -4.893805 4.553145
v -0.327664 -4.893805 4.553145
v -0.327664 4.628319 4.553145
v -2.843922 4.628319 4.553145
v -0.997981 1.725127 3.714750
v -0.947992 1.726200 3.714750
v -0.887962 -1.070260 2.510775
v -0.937951 -1.071333 2.510775
v -0.997981 1.725127 3.614750
v -0.947992 1.726200 3.614750
v -0.887962 -1.070260 2.410775
v -0.937951 -1.071333 2.410775
v -2.859505 -4.290062 2.404045
v -2.898374 -4.258611 2.404045
v -1.802827 -2.904629 1.189540
v -1.763957 -2.936079 1.189540
v -2.859505 -4.290062 2.304045
v -2.898374 -4.258611 2.304045
v -1.802827 -2.904629 1.089540
v -1.763957 -2.936079 1.089540
v -1.770658 4.891322 4.783895
v -1.726090 4.913988 4.783895
v -0.425440 2.356465 4.273165
v -0.470008 2.333800 4.273165
v -1.770658 4.891322 4.683895
v -1.726090 4.913988 4.683895
v -0.425440 2.356465 4.173165
v -0.470008 2.333800 4.173165
v -2.668847 -3.592920 1.782370
v -2.718847 -3.592920 1.782370
v -2.718847 -1.539823 2.874770
v -2.668847 -1.539823 2.874770
v -2.668847 -3.592920 1.682370
v -2.718847 -3.592920 1.682370
v -2.718847 -1.539823 2.774770
v -2.668847 -1.539823 2.774770
v -2.478752 -1.017699 2.915860
v -2.528752 -1.017699 2.915860
v -2.528752 0.734513 3.735880
v -2.478752 0.734513 3.735880
v -2.478752 -1.017699 2.815860
v -2.528752 -1.017699 2.815860
v -2.528752 0.734513 3.635880
v -2.478752 0.734513 3.635880
v -2.444868 2.355390 3.956585
v -2.492601 2.370273 3.956585
v -1.877294 4.343725 4.382970
v -1.829560 4.328842 4.382970
v -2.444868 2.355390 3.856585
v -2.492601 2.370273 3.856585
v -1.877294 4.343725 4.282970
v -1.829560 4.328842 4.282970
v -2.778185 1.605472 4.161390
v -2.819614 1.633466 4.161390
v -1.288849 3.898952 4.408645
v -1.247419 3.870959 4.408645
v -2.778185 1.605472 4.061390
v -2.819614 1.633466 4.061390
v -1.288849 3.898952 4.308645
v -1.247419 3.870959 4.308645
v -2.654399 -3.944926 1.446820
v -2.693274 -3.913481 1.446820
v -1.812834 -2.824986 1.270010
v -1.773959 -2.856430 1.270010
v -2.654399 -3.944926 1.346820
v -2.693274 -3.913481 1.346820
v -1.812834 -2.824986 1.170010
v -1.773959 -2.856430 1.170010
v -2.683116 1.490460 3.967795
v -2.724588 1.518390 3.967795
v -1.198825 3.783877 4.449825
v -1.157353 3.755946 4.449825
v -2.683116 1.490460 3.867795
v -2.724588 1.518390 3.867795
v -1.198825 3.783877 4.349825
v -1.157353 3.755946 4.349825
v -1.893433 4.344900 4.402185
v -1.843435 4.345366 4.402185
v -1.828428 2.734746 3.579920
v -1.878426 2.734280 3.579920
v -1.893433 4.344900 4.302185
v -1.843435 4.345366 4.302185
v -1.828428 2.734746 3.479920
v -1.878426 2.734280 3.479920
v -1.647482 4.515739 4.544095
v -1.599141 4.528509 4.544095
v -1.133908 2.767447 3.974345
v -1.182250 2.754677 3.974345
v -1.647482 4.515739 4.444095
v -1.599141 4.528509 4.444095
v -1.133908 2.767447 3.874345
v -1.182250 2.754677 3.874345
v -1.903438 4.318330 4.385875
v -1.853441 4.318838 4.385875
v -1.803415 -0.610366 2.260175
v -1.853413 -0.610873 2.260175
v -1.903438 4.318330 4.285875
v -1.853441 4.318838 4.285875
v -1.803415 -0.610366 2.160175
v -1.853413 -0.610873 2.160175
v -2.393709 -0.141593 3.432570
v -2.443709 -0.141593 3.432570
v -2.443709 2.946903 4.199165
v -2.393709 2.946903 4.199165
v -2.393709 -0.141593 3.332570
v -2.443709 -0.141593 3.332570
v -2.443709 2.946903 4.099165
v -2.393709 2.946903 4.099165
v -2.719424 -4.396244 1.256320
v -2.758314 -4.364818 1.256320
v -1.642757 -2.984287 1.165370
v -1.603867 -3.015713 1.165370
v -2.719424 -4.396244 1.156320
v -2.758314 -4.364818 1.156320
v -1.642757 -2.984287 1.065370
v -1.603867 -3.015713 1.065370
v -2.658830 -1.722952 2.755180
v -2.698849 -1.692977 2.755180
v -0.822911 0.811448 3.521970
v -0.782892 0.781472 3.521970
v -2.658830 -1.722952 2.655180
v -2.698849 -1.692977 2.655180
v -0.822911 0.811448 3.421970
v -0.782892 0.781472 3.421970
v -1.845377 -0.588325 2.288180
v -1.821456 -0.544419 2.288180
v -0.505798 -1.261233 2.908935
v -0.529720 -1.305139 2.908935
v -1.845377 -0.588325 2.188180
v -1.821456 -0.544419 2.188180
v -0.505798 -1.261233 2.808935
v -0.529720 -1.305139 2.808935
v -1.904813 -2.978019 1.212480
v -1.882080 -2.933486 1.212480
v -0.876578 -3.446760 1.215095
v -0.899310 -3.491293 1.215095
v -1.904813 -2.978019 1.112480
v -1.882080 -2.933486 1.112480
v -0.876578 -3.446760 1.115095
v -0.899310 -3.491293 1.115095
v -2.820673 1.866916 4.290105
v -2.867171 1.885297 4.290105
v -1.866671 4.416270 4.453445
v -1.820172 4.397889 4.453445
v -2.820673 1.866916 4.190105
v -2.867171 1.885297 4.190105
v -1.866671 4.416270 4.353445
v -1.820172 4.397889 4.353445
v -2.366712 3.084862 4.205215
v -2.340642 3.127528 4.205215
v -0.544744 2.030182 4.167045
v -0.570814 1.987517 4.167045
v -2.366712 3.084862 4.105215
v -2.340642 3.127528 4.105215
v -0.544744 2.030182 4.067045
v -0.570814 1.987517 4.067045
v -2.818143 1.800254 4.251580
v -2.859695 1.828065 4.251580
v -2.119325 2.934259 3.782930
v -2.077773 2.906449 3.782930
v -2.818143 1.800254 4.151580
v -2.859695 1.828065 4.151580
v -2.119325 2.934259 3.682930
v -2.077773 2.906449 3.682930
v -2.788167 1.906392 4.206225
v -2.829642 1.934316 4.206225
v -1.363909 4.111307 4.458010
v -1.322434 4.083383 4.458010
v -2.788167 1.906392 4.106225
v -2.829642 1.934316 4.106225
v -1.363909 4.111307 4.358010
v -1.322434 4.083383 4.358010
v -1.298732 -2.555558 1.623655
v -1.337586 -2.524088 1.623655
v -0.857346 -1.931168 2.269650
v -0.818492 -1.962638 2.269650
v -1.298732 -2.555558 1.523655
v -1.337586 -2.524088 1.523655
v -0.857346 -1.931168 2.169650
v -0.818492 -1.962638 2.169650
v -1.587468 4.400753 4.484030
v -1.539095 4.413407 4.484030
v -1.103878 2.749690 3.989080
v -1.152250 2.737036 3.989080
v -1.587468 4.400753 4.384030
v -1.539095 4.413407 4.384030
v -1.103878 2.749690 3.889080
v -1.152250 2.737036 3.889080
v -2.289793 2.594318 3.894455
v -2.337520 2.609222 3.894455
v -1.652178 4.803912 4.780445
v -1.604451 4.789008 4.780445
v -2.289793 2.594318 3.794455
v -2.337520 2.609222 3.794455
v -1.652178 4.803912 4.680445
v -1.604451 4.789008 4.680445
v -0.867916 1.618964 3.759245
v -0.817927 1.619974 3.759245
v -0.772904 -0.610115 2.944560
v -0.822894 -0.611124 2.944560
v -0.867916 1.618964 3.659245
v -0.817927 1.619974 3.659245
v -0.772904 -0.610115 2.844560
v -0.822894 -0.611124 2.844560
v -2.804485 -4.422815 1.431790
v -2.843339 -4.391345 1.431790
v -1.882859 -3.205504 0.892340
v -1.844005 -3.236974 0.892340
v -2.804485 -4.422815 1.331790
v -2.843339 -4.391345 1.331790
v -1.882859 -3.205504 0.792340
v -1.844005 -3.236974 0.792340
v -1.853413 -0.026819 2.693640
v -1.803416 -0.026278 2.693640
v -1.768398 -3.265216 0.880000
v -1.818395 -3.265757 0.880000
v -1.853413 -0.026819 2.593640
v -1.803416 -0.026278 2.593640
v -1.768398 -3.265216 0.780000
v -1.818395 -3.265757 0.780000
v -2.819464 -4.325434 1.600500
v -2.858375 -4.294035 1.600500
v -1.872882 -3.072796 0.961200
v -1.833971 -3.104195 0.961200
v -2.819464 -4.325434 1.500500
v -2.858375 -4.294035 1.500500
v -1.872882 -3.072796 0.861200
v -1.833971 -3.104195 0.861200
v -2.544931 2.204906 3.969140
v -2.592638 2.219873 3.969140
v -2.062373 3.910138 4.291260
v -2.014666 3.895172 4.291260
v -2.544931 2.204906 3.869140
v -2.592638 2.219873 3.869140
v -2.062373 3.910138 4.191260
v -2.014666 3.895172 4.191260
v -1.648310 2.088232 3.377970
v -1.598313 2.088759 3.377970
v -1.573301 -0.282922 2.589455
v -1.623298 -0.283449 2.589455
v -1.648310 2.088232 3.277970
v -1.598313 2.088759 3.277970
v -1.573301 -0.282922 2.489455
v -1.623298 -0.283449 2.489455
v -2.803158 1.835620 4.203830
v -2.844666 1.863495 4.203830
v -1.453971 3.934292 4.349565
v -1.412462 3.906416 4.349565
v -2.803158 1.835620 4.103830
v -2.844666 1.863495 4.103830
v -1.453971 3.934292 4.249565
v -1.412462 3.906416 4.249565
v -2.643840 -1.749524 2.704960
v -2.683824 -1.719503 2.704960
v -1.813389 -0.560211 2.285155
v -1.773405 -0.590232 2.285155
v -2.643840 -1.749524 2.604960
v -2.683824 -1.719503 2.604960
v -1.813389 -0.560211 2.185155
v -1.773405 -0.590232 2.185155
v -1.626326 3.022905 3.783580
v -1.600288 3.065590 3.783580
v -0.439707 2.357626 4.264165
v -0.465745 2.314941 4.264165
v -1.626326 3.022905 3.683580
v -1.600288 3.065590 3.683580
v -0.439707 2.357626 4.164165
v -0.465745 2.314941 4.164165
v -1.523245 2.017235 3.409155
v -1.473253 2.018163 3.409155
v -1.438236 0.133208 2.874970
v -1.488227 0.132279 2.874970
v -1.523245 2.017235 3.309155
v -1.473253 2.018163 3.309155
v -1.438236 0.133208 2.774970
v -1.488227 0.132279 2.774970
v -1.506681 3.014315 3.891825
v -1.479812 3.056482 3.891825
v -0.424285 2.383916 4.288535
v -0.451153 2.341748 4.288535
v -1.506681 3.014315 3.791825
v -1.479812 3.056482 3.791825
v -0.424285 2.383916 4.188535
v -0.451153 2.341748 4.188535
v -1.827579 4.604257 4.590520
v -1.779225 4.616982 4.590520
v -1.374022 3.077159 4.001290
v -1.422376 3.064434 4.001290
v -1.827579 4.604257 4.490520
v -1.779225 4.616982 4.490520
v -1.374022 3.077159 3.901290
v -1.422376 3.064434 3.901290
v -1.743358 2.150183 3.404565
v -1.693361 2.150702 3.404565
v -1.668348 -0.256377 2.590730
v -1.718345 -0.256897 2.590730
v -1.743358 2.150183 3.304565
v -1.693361 2.150702 3.304565
v -1.668348 -0.256377 2.490730
v -1.718345 -0.256897 2.490730
v -1.824698 -2.924960 1.214665
v -1.802115 -2.880350 1.214665
v -0.246337 -3.667961 2.410845
v -0.268921 -3.712570 2.410845
v -1.824698 -2.924960 1.114665
v -1.802115 -2.880350 1.114665
v -0.246337 -3.667961 2.310845
v -0.268921 -3.712570 2.310845
v -2.129636 3.267136 4.094870
v -2.177517 3.281537 4.094870
v -1.762310 4.662068 4.588395
v -1.714429 4.647667 4.588395
v -2.129636 3.267136 3.994870
v -2.177517 3.281537 3.994870
v -1.762310 4.662068 4.488395
v -1.714429 4.647667 4.488395
v -2.128550 3.796188 4.316875
v -2.078553 3.796732 4.316875
v -2.063546 2.416201 3.624015
v -2.113543 2.415657 3.624015
v -2.128550 3.796188 4.216875
v -2.078553 3.796732 4.216875
v -2.063546 2.416201 3.524015
v -2.113543 2.415657 3.524015
v -2.103539 1.911310 3.346775
v -2.053540 1.911699 3.346775
v -2.038533 -0.017505 2.813890
v -2.088531 -0.017894 2.813890
v -2.103539 1.911310 3.246775
v -2.053540 1.911699 3.246775
v -2.038533 -0.017505 2.713890
v -2.088531 -0.017894 2.713890
v -2.003488 0.654621 2.968225
v -1.953490 0.655113 2.968225
v -1.943485 -0.362586 2.487055
v -1.993483 -0.363078 2.487055
v -2.003488 0.654621 2.868225
v -1.953490 0.655113 2.868225
v -1.943485 -0.362586 2.387055
v -1.993483 -0.363078 2.387055
v -2.004821 -3.101934 1.221880
v -1.982173 -3.057358 1.221880
v -0.536450 -3.791871 1.246925
v -0.559098 -3.836448 1.246925
v -2.004821 -3.101934 1.121880
v -1.982173 -3.057358 1.121880
v -0.536450 -3.791871 1.146925
v -0.559098 -3.836448 1.146925
v -2.558319 0.313082 3.881165
v -2.599260 0.341785 3.881165
v -1.488705 1.925856 3.426150
v -1.447764 1.897153 3.426150
v -2.558319 0.313082 3.781165
v -2.599260 0.341785 3.781165
v -1.488705 1.925856 3.326150
v -1.447764 1.897153 3.326150
v -2.388707 -0.911504 2.934050
v -2.438707 -0.911504 2.934050
v -2.438707 -0.070796 3.449490
v -2.388707 -0.070796 3.449490
v -2.388707 -0.911504 2.834050
v -2.438707 -0.911504 2.834050
v -2.438707 -0.070796 3.349490
v -2.388707 -0.070796 3.349490
v -2.219680 2.700769 3.848245
v -2.267564 2.715160 3.848245
v -1.847354 4.113390 4.293015
v -1.799470 4.098999 4.293015
v -2.219680 2.700769 3.748245
v -2.267564 2.715160 3.748245
v -1.847354 4.113390 4.193015
v -1.799470 4.098999 4.193015
v -2.117162 3.501153 4.158290
v -2.089941 3.543094 4.158290
v -0.549171 2.543094 4.264890
v -0.576392 2.501153 4.264890
v -2.117162 3.501153 4.058290
v -2.089941 3.543094 4.058290
v -0.549171 2.543094 4.164890
v -0.576392 2.501153 4.164890
v -2.778161 2.003737 4.256695
v -2.819637 2.031661 4.256695
v -1.759107 3.606882 4.018840
v -1.717631 3.578958 4.018840
v -2.778161 2.003737 4.156695
v -2.819637 2.031661 4.156695
v -1.759107 3.606882 3.918840
v -1.717631 3.578958 3.918840
v -2.563318 0.490078 3.897290
v -2.604265 0.518772 3.897290
v -1.853890 1.589568 3.221615
v -1.812943 1.560874 3.221615
v -2.563318 0.490078 3.797290
v -2.604265 0.518772 3.797290
v -1.853890 1.589568 3.121615
v -1.812943 1.560874 3.121615
v -1.083024 1.884467 3.703465
v -1.033034 1.885445 3.703465
v -0.942989 -2.716325 1.762285
v -0.992979 -2.717303 1.762285
v -1.083024 1.884467 3.603465
v -1.033034 1.885445 3.603465
v -0.942989 -2.716325 1.662285
v -0.992979 -2.717303 1.662285
v -1.337247 4.028716 4.444220
v -1.289066 4.042080 4.444220
v -0.893869 2.617302 4.058060
v -0.942049 2.603937 4.058060
v -1.337247 4.028716 4.344220
v -1.289066 4.042080 4.344220
v -0.893869 2.617302 3.958060
v -0.942049 2.603937 3.958060
v -1.061023 1.722008 3.659050
v -1.035025 1.764718 3.659050
v -0.569793 1.481532 3.992415
v -0.595790 1.438822 3.992415
v -1.061023 1.722008 3.559050
v -1.035025 1.764718 3.559050
v -0.569793 1.481532 3.892415
v -0.595790 1.438822 3.892415
v -1.471108 1.164413 3.154500
v -1.445351 1.207268 3.154500
v -0.664961 0.738242 3.736360
v -0.690717 0.695386 3.736360
v -1.471108 1.164413 3.054500
v -1.445351 1.207268 3.054500
v -0.664961 0.738242 3.636360
v -0.690717 0.695386 3.636360
v -1.262237 3.869524 4.439180
v -1.214001 3.882688 4.439180
v -0.863826 2.599502 4.064040
v -0.912062 2.586339 4.064040
v -1.262237 3.869524 4.339180
v -1.214001 3.882688 4.339180
v -0.863826 2.599502 3.964040
v -0.912062 2.586339 3.964040
v -1.822575 4.462659 4.498405
v -1.774224 4.475394 4.498405
v -1.364018 2.917872 3.889830
v -1.412370 2.905137 3.889830
v -1.822575 4.462659 4.398405
v -1.774224 4.475394 4.398405
v -1.364018 2.917872 3.789830
v -1.412370 2.905137 3.789830
v -2.679410 -4.272357 1.222455
v -2.718289 -4.240917 1.222455
v -1.687773 -2.966581 1.153140
v -1.648895 -2.998021 1.153140
v -2.679410 -4.272357 1.122455
v -2.718289 -4.240917 1.122455
v -1.687773 -2.966581 1.053140
v -1.648895 -2.998021 1.053140
v -1.833417 0.380531 2.818440
v -1.733367 4.194690 4.284680
v -2.078539 1.017699 3.056055
v -2.078539 1.769912 3.272780
v -1.678339 4.628319 4.553145
v -1.903452 3.247788 3.742235
v -2.648824 -3.566372 1.615010
v -1.803402 3.707965 4.018075
v -1.843422 1.584071 3.176305
v -0.977989 1.672566 3.631165
v -1.473237 1.008850 3.033460
v -0.762881 2.681416 4.155760
v -2.743872 1.566372 3.969905
v -2.523762 1.168142 3.744685
v -1.693347 3.265487 3.851235
v -1.458229 3.123894 3.937960
v -2.808904 -4.407080 1.331565
v -2.518759 0.389381 3.545215
v -2.688844 1.053097 3.993440
v -1.828414 -0.292035 2.478265
v -2.153577 -1.991150 1.998670
v -2.183592 -3.300885 1.108940
v -2.283642 0.964602 3.501030
v -0.987994 2.823009 4.085005
v -1.223112 2.973451 4.033160
v -0.992996 0.884956 3.325270
v -1.658329 1.274336 2.996660
v -0.557779 2.539823 4.233660
v -1.828414 -3.088496 0.907200
v -1.258129 0.079646 2.932115
v -2.153577 -3.681416 0.758785
v -2.663832 -3.256637 1.888920
v -1.883442 2.849558 3.562270
v -1.828414 -0.592920 2.220580
v -0.822911 1.522124 3.684090
v -2.668834 -1.716814 2.667885
v -1.448224 2.000000 3.439640
v -2.403702 -1.823009 2.294215
v -1.133067 -1.451327 2.203750
v -2.458729 -4.115044 0.914005
v -1.328164 -1.716814 1.988760
v -1.228114 -2.035398 1.913910
v -2.048524 -1.628319 1.966020
v -1.808404 -2.176991 1.542450
v -2.263632 -1.407080 2.365055
v -0.982991 -1.823009 2.160265
v -2.678839 -3.911504 1.450205
v -1.638319 1.991150 3.276875
v -1.933467 1.212389 3.003040
v -2.373687 0.601770 3.477420
v -1.153077 -2.814159 1.513860
v -1.833417 0.672566 2.911785
v -1.823412 -0.000000 2.656360
v -0.692846 0.707965 3.634485
v -1.213107 3.823009 4.382640
v -2.263632 -2.300885 1.966600
v -0.822911 3.070796 4.257000
v -2.528764 -3.070796 1.861355
v -1.953477 -2.353982 1.568105
v -1.358179 -2.787611 1.384995
v -0.837919 -3.814159 0.992665
v -1.578289 4.407080 4.427795
v -2.403702 -2.141593 2.159360
v -1.423212 -0.389381 2.626450
v -1.458229 0.132743 2.833890
v -0.947974 -2.159292 2.026135
v -2.488744 -1.477876 2.540020
v -2.078539 0.053097 2.846305
v -2.413707 -1.079646 2.665420
v -1.388194 -1.991150 1.831460
v -1.053027 0.327434 3.082710
v -1.393197 0.584071 3.036740
v -2.288644 -2.592920 1.837875
v -2.163582 2.991150 3.887600
v -2.843922 1.849558 4.231355
v -0.597799 1.451327 3.925755
v -0.562781 1.991150 4.110395
v -2.463732 2.539823 3.983120
v -0.327664 -3.929204 1.470790
v -1.013007 -0.761062 2.560335
v -2.468734 -3.663717 1.179735
v -0.887944 -2.725664 1.761495
v -1.168084 -1.734513 2.071060
v -0.737869 -1.265487 2.558465
v -2.083542 0.752212 3.033655
v -2.318659 2.761062 3.949175
v -0.477739 -2.849558 2.221455
v -1.458229 -1.548673 1.982430
v -2.023512 -0.849558 2.227510
v -1.903452 1.831858 3.254750
v -2.108554 -2.690265 1.611775
v -0.522761 -1.309735 2.836330
v -1.308154 -3.584071 0.847900
v -0.712856 -3.194690 1.646445
v -1.498249 -0.778761 2.264345
v -2.758879 2.088496 4.141470
v -2.358679 -3.000000 1.686275
v -2.608804 2.318584 4.020705
v -0.707854 -2.690265 2.026235
v -1.198099 0.654867 3.139755
v -2.478739 -4.831858 0.621100
v -1.543272 2.495575 3.578240
v -2.273637 0.318584 3.403470
v -1.123062 2.230088 3.717705
v -1.288144 -3.159292 1.102525
v -0.892946 2.088496 3.852175
v -1.568284 -2.309735 1.560970
v -1.478239 1.380531 3.176000
v -2.233617 -4.769912 0.374350
v -2.103552 -4.477876 0.449865
v -1.848424 2.238938 3.371920
v -2.763882 -4.893805 0.884430
v -2.233617 -4.309735 0.612065
v -1.308154 2.345133 3.649035
v -1.213107 -0.637168 2.526150
v -0.777889 1.176991 3.642475
v -1.813407 -4.743363 0.158000
v -2.808904 -4.893805 1.041731
v -0.327664 -4.893805 1.041731
v -0.327664 -3.703540 1.041731
v -2.808904 -3.703540 1.041731
v -2.808904 -4.893805 0.641731
v -0.327664 -4.893805 0.641731
v -0.327664 -3.703540 0.641731
v -2.808904 -3.703540 0.641731
v -2.663832 -3.703540 1.697821
v -0.477739 -3.703540 1.697821
v -0.477739 -2.513274 1.697821
v -2.663832 -2.513274 1.697821
v -2.663832 -3.703540 1.297821
v -0.477739 -3.703540 1.297821
v -0.477739 -2.513274 1.297821
v -2.663832 -2.513274 1.297821
v -2.668834 -2.513274 2.242480
v -0.947974 -2.513274 2.242480
v -0.947974 -1.323009 2.242480
v -2.668834 -1.323009 2.242480
v -2.668834 -2.513274 1.842480
v -0.947974 -2.513274 1.842480
v -0.947974 -1.323009 1.842480
v -2.668834 -1.323009 1.842480
v -2.413707 -1.323009 2.696385
v -0.522761 -1.323009 2.696385
v -0.522761 -0.132743 2.696385
v -2.413707 -0.132743 2.696385
v -2.413707 -1.323009 2.296385
v -0.522761 -1.323009 2.296385
v -0.522761 -0.132743 2.296385
v -2.413707 -0.132743 2.296385
v -2.688844 -0.132743 3.371663
v -0.692846 -0.132743 3.371663
v -0.692846 1.057522 3.371663
v -2.688844 1.057522 3.371663
v -2.688844 -0.132743 2.971663
v -0.692846 -0.132743 2.971663
v -0.692846 1.057522 2.971663
v -2.688844 1.057522 2.971663
v -2.843922 1.057522 3.780957
v -0.562781 1.057522 3.780957
v -0.562781 2.247788 3.780957
v -2.843922 2.247788 3.780957
v -2.843922 1.057522 3.380957
v -0.562781 1.057522 3.380957
v -0.562781 2.247788 3.380957
v -2.843922 2.247788 3.380957
v -2.608804 2.247788 4.128411
v -0.557779 2.247788 4.128411
v -0.557779 3.438053 4.128411
v -2.608804 3.438053 4.128411
v -2.608804 2.247788 3.728411
v -0.557779 2.247788 3.728411
v -0.557779 3.438053 3.728411
v -2.608804 3.438053 3.728411
v -1.803402 3.438053 4.533267
v -1.213107 3.438053 4.533267
v -1.213107 4.628319 4.533267
v -1.803402 4.628319 4.533267
v -1.803402 3.438053 4.133267
v -1.213107 3.438053 4.133267
v -1.213107 4.628319 4.133267
v -1.803402 4.628319 4.133267
g shell
f 1 3 2
f 1 4 3
f 5 6 7
f 5 7 8
f 1 2 6
f 1 6 5
f 4 7 3
f 4 8 7
f 1 5 8
f 1 8 4
f 2 3 7
f 2 7 6
g beams
f 9 10 11
f 9 11 12
f 13 15 14
f 13 16 15
f 9 13 14
f 9 14 10
f 11 15 16
f 11 16 12
f 9 12 16
f 9 16 13
f 10 14 15
f 10 15 11
f 17 18 19
f 17 19 20
f 21 23 22
f 21 24 23
f 17 21 22
f 17 22 18
f 19 23 24
f 19 24 20
f 17 20 24
f 17 24 21
f 18 22 23
f 18 23 19
f 25 26 27
f 25 27 28
f 29 31 30
f 29 32 31
f 25 29 30
f 25 30 26
f 27 31 32
f 27 32 28
f 25 28 32
f 25 32 29
f 26 30 31
f 26 31 27
f 33 34 35
f 33 35 36
f 37 39 38
f 37 40 39
f 33 37 38
f 33 38 34
f 35 39 40
f 35 40 36
f 33 36 40
f 33 40 37
f 34 38 39
f 34 39 35
f 41 42 43
f 41 43 44
f 45 47 46
f 45 48 47
f 41 45 46
f 41 46 42
f 43 47 48
f 43 48 44
f 41 44 48
f 41 48 45
f 42 46 47
f 42 47 43
f 49 50 51
f 49 51 52
f 53 55 54
f 53 56 55
f 49 53 54
f 49 54 50
f 51 55 56
f 51 56 52
f 49 52 56
f 49 56 53
f 50 54 55
f 50 55 51
f 57 58 59
f 57 59 60
f 61 63 62
f 61 64 63
f 57 61 62
f 57 62 58
f 59 63 64
f 59 64 60
f 57 60 64
f 57 64 61
f 58 62 63
f 58 63 59
f 65 66 67
f 65 67 68
f 69 71 70
f 69 72 71
f 65 69 70
f 65 70 66
f 67 71 72
f 67 72 68
f 65 68 72
f 65 72 69
f 66 70 71
f 66 71 67
f 73 74 75
f 73 75 76
f 77 79 78
f 77 80 79
f 73 77 78
f 73 78 74
f 75 79 80
f 75 80 76
f 73 76 80
f 73 80 77
f 74 78 79
f 74 79 75
f 81 82 83
f 81 83 84
f 85 87 86
f 85 88 87
f 81 85 86
f 81 86 82
f 83 87 88
f 83 88 84
f 81 84 88
f 81 88 85
f 82 86 87
f 82 87 83
f 89 90 91
f 89 91 92
f 93 95 94
f 93 96 95
f 89 93 94
f 89 94 90
f 91 95 96
f 91 96 92
f 89 92 96
f 89 96 93
f 90 94 95
f 90 95 91
f 97 98 99
f 97 99 100
f 101 103 102
f 101 104 103
f 97 101 102
f 97 102 98
f 99 103 104
f 99 104 100
f 97 100 104
f 97 104 101
f 98 102 103
f 98 103 99
f 105 106 107
f 105 107 108
f 109 111 110
f 109 112 111
f 105 109 110
f 105 110 106
f 107 111 112
f 107 112 108
f 105 108 112
f 105 112 109
f 106 110 111
f 106 111 107
f 113 114 115
f 113 115 116
f 117 119 118
f 117 120 119
f 113 117 118
f 113 118 114
f 115 119 120
f 115 120 116
f 113 116 120
f 113 120 117
f 114 118 119
f 114 119 115
f 121 122 123
f 121 123 124
f 125 127 126
f 125 128 127
f 121 125 126
f 121 126 122
f 123 127 128
f 123 128 124
f 121 124 128
f 121 128 125
f 122 126 127
f 122 127 123
f 129 130 131
f 129 131 132
f 133 135 134
f 133 136 135
f 129 133 134
f 129 134 130
f 131 135 136
f 131 136 132
f 129 132 136
f 129 136 133
f 130 134 135
f 130 135 131
f 137 138 139
f 137 139 140
f 141 143 142
f 141 144 143
f 137 141 142
f 137 142 138
f 139 143 144
f 139 144 140
f 137 140 144
f 137 144 141
f 138 142 143
f 138 143 139
f 145 146 147
f 145 147 148
f 149 151 150
f 149 152 151
f 145 149 150
f 145 150 146
f 147 151 152
f 147 152 148
f 145 148 152
f 145 152 149
f 146 150 151
f 146 151 147
f 153 154 155
f 153 155 156
f 157 159 158
f 157 160 159
f 153 157 158
f 153 158 154
f 155 159 160
f 155 160 156
f 153 156 160
f 153 160 157
f 154 158 159
f 154 159 155
f 161 162 163
f 161 163 164
f 165 167 166
f 165 168 167
f 161 165 166
f 161 166 162
f 163 167 168
f 163 168 164
f 161 164 168
f 161 168 165
f 162 166 167
f 162 167 163
f 169 170 171
f 169 171 172
f 173 175 174
f 173 176 175
f 169 173 174
f 169 174 170
f 171 175 176
f 171 176 172
f 169 172 176
f 169 176 173
f 170 174 175
f 170 175 171
f 177 178 179
f 177 179 180
f 181 183 182
f 181 184 183
f 177 181 182
f 177 182 178
f 179 183 184
f 179 184 180
f 177 180 184
f 177 184 181
f 178 182 183
f 178 183 179
f 185 186 187
f 185 187 188
f 189 191 190
f 189 192 191
f 185 189 190
f 185 190 186
f 187 191 192
f 187 192 188
f 185 188 192
f 185 192 189
f 186 190 191
f 186 191 187
f 193 194 195
f 193 195 196
f 197 199 198
f 197 200 199
f 193 197 198
f 193 198 194
f 195 199 200
f 195 200 196
f 193 196 200
f 193 200 197
f 194 198 199
f 194 199 195
f 201 202 203
f 201 203 204
f 205 207 206
f 205 208 207
f 201 205 206
f 201 206 202
f 203 207 208
f 203 208 204
f 201 204 208
f 201 208 205
f 202 206 207
f 202 207 203
f 209 210 211
f 209 211 212
f 213 215 214
f 213 216 215
f 209 213 214
f 209 214 210
f 211 215 216
f 211 216 212
f 209 212 216
f 209 216 213
f 210 214 215
f 210 215 211
f 217 218 219
f 217 219 220
f 221 223 222
f 221 224 223
f 217 221 222
f 217 222 218
f 219 223 224
f 219 224 220
f 217 220 224
f 217 224 221
f 218 222 223
f 218 223 219
f 225 226 227
f 225 227 228
f 229 231 230
f 229 232 231
f 225 229 230
f 225 230 226
f 227 231 232
f 227 232 228
f 225 228 232
f 225 232 229
f 226 230 231
f 226 231 227
f 233 234 235
f 233 235 236
f 237 239 238
f 237 240 239
f 233 237 238
f 233 238 234
f 235 239 240
f 235 240 236
f 233 236 240
f 233 240 237
f 234 238 239
f 234 239 235
f 241 242 243
f 241 243 244
f 245 247 246
f 245 248 247
f 241 245 246
f 241 246 242
f 243 247 248
f 243 248 244
f 241 244 248
f 241 248 245
f 242 246 247
f 242 247 243
f 249 250 251
f 249 251 252
f 253 255 254
f 253 256 255
f 249 253 254
f 249 254 250
f 251 255 256
f 251 256 252
f 249 252 256
f 249 256 253
f 250 254 255
f 250 255 251
f 257 258 259
f 257 259 260
f 261 263 262
f 261 264 263
f 257 261 262
f 257 262 258
f 259 263 264
f 259 264 260
f 257 260 264
f 257 264 261
f 258 262 263
f 258 263 259
f 265 266 267
f 265 267 268
f 269 271 270
f 269 272 271
f 265 269 270
f 265 270 266
f 267 271 272
f 267 272 268
f 265 268 272
f 265 272 269
f 266 270 271
f 266 271 267
f 273 274 275
f 273 275 276
f 277 279 278
f 277 280 279
f 273 277 278
f 273 278 274
f 275 279 280
f 275 280 276
f 273 276 280
f 273 280 277
f 274 278 279
f 274 279 275
f 281 282 283
f 281 283 284
f 285 287 286
f 285 288 287
f 281 285 286
f 281 286 282
f 283 287 288
f 283 288 284
f 281 284 288
f 281 288 285
f 282 286 287
f 282 287 283
f 289 290 291
f 289 291 292
f 293 295 294
f 293 296 295
f 289 293 294
f 289 294 290
f 291 295 296
f 291 296 292
f 289 292 296
f 289 296 293
f 290 294 295
f 290 295 291
f 297 298 299
f 297 299 300
f 301 303 302
f 301 304 303
f 297 301 302
f 297 302 298
f 299 303 304
f 299 304 300
f 297 300 304
f 297 304 301
f 298 302 303
f 298 303 299
f 305 306 307
f 305 307 308
f 309 311 310
f 309 312 311
f 305 309 310
f 305 310 306
f 307 311 312
f 307 312 308
f 305 308 312
f 305 312 309
f 306 310 311
f 306 311 307
f 313 314 315
f 313 315 316
f 317 319 318
f 317 320 319
f 313 317 318
f 313 318 314
f 315 319 320
f 315 320 316
f 313 316 320
f 313 320 317
f 314 318 319
f 314 319 315
f 321 322 323
f 321 323 324
f 325 327 326
f 325 328 327
f 321 325 326
f 321 326 322
f 323 327 328
f 323 328 324
f 321 324 328
f 321 328 325
f 322 326 327
f 322 327 323
f 329 330 331
f 329 331 332
f 333 335 334
f 333 336 335
f 329 333 334
f 329 334 330
f 331 335 336
f 331 336 332
f 329 332 336
f 329 336 333
f 330 334 335
f 330 335 331
f 337 338 339
f 337 339 340
f 341 343 342
f 341 344 343
f 337 341 342
f 337 342 338
f 339 343 344
f 339 344 340
f 337 340 344
f 337 344 341
f 338 342 343
f 338 343 339
f 345 346 347
f 345 347 348
f 349 351 350
f 349 352 351
f 345 349 350
f 345 350 346
f 347 351 352
f 347 352 348
f 345 348 352
f 345 352 349
f 346 350 351
f 346 351 347
f 353 354 355
f 353 355 356
f 357 359 358
f 357 360 359
f 353 357 358
f 353 358 354
f 355 359 360
f 355 360 356
f 353 356 360
f 353 360 357
f 354 358 359
f 354 359 355
f 361 362 363
f 361 363 364
f 365 367 366
f 365 368 367
f 361 365 366
f 361 366 362
f 363 367 368
f 363 368 364
f 361 364 368
f 361 368 365
f 362 366 367
f 362 367 363
f 369 370 371
f 369 371 372
f 373 375 374
f 373 376 375
f 369 373 374
f 369 374 370
f 371 375 376
f 371 376 372
f 369 372 376
f 369 376 373
f 370 374 375
f 370 375 371
f 377 378 379
f 377 379 380
f 381 383 382
f 381 384 383
f 377 381 382
f 377 382 378
f 379 383 384
f 379 384 380
f 377 380 384
f 377 384 381
f 378 382 383
f 378 383 379
f 385 386 387
f 385 387 388
f 389 391 390
f 389 392 391
f 385 389 390
f 385 390 386
f 387 391 392
f 387 392 388
f 385 388 392
f 385 392 389
f 386 390 391
f 386 391 387
f 393 394 395
f 393 395 396
f 397 399 398
f 397 400 399
f 393 397 398
f 393 398 394
f 395 399 400
f 395 400 396
f 393 396 400
f 393 400 397
f 394 398 399
f 394 399 395
f 401 402 403
f 401 403 404
f 405 407 406
f 405 408 407
f 401 405 406
f 401 406 402
f 403 407 408
f 403 408 404
f 401 404 408
f 401 408 405
f 402 406 407
f 402 407 403
f 409 410 411
f 409 411 412
f 413 415 414
f 413 416 415
f 409 413 414
f 409 414 410
f 411 415 416
f 411 416 412
f 409 412 416
f 409 416 413
f 410 414 415
f 410 415 411
f 417 418 419
f 417 419 420
f 421 423 422
f 421 424 423
f 417 421 422
f 417 422 418
f 419 423 424
f 419 424 420
f 417 420 424
f 417 424 421
f 418 422 423
f 418 423 419
f 425 426 427
f 425 427 428
f 429 431 430
f 429 432 431
f 425 429 430
f 425 430 426
f 427 431 432
f 427 432 428
f 425 428 432
f 425 432 429
f 426 430 431
f 426 431 427
f 433 434 435
f 433 435 436
f 437 439 438
f 437 440 439
f 433 437 438
f 433 438 434
f 435 439 440
f 435 440 436
f 433 436 440
f 433 440 437
f 434 438 439
f 434 439 435
f 441 442 443
f 441 443 444
f 445 447 446
f 445 448 447
f 441 445 446
f 441 446 442
f 443 447 448
f 443 448 444
f 441 444 448
f 441 448 445
f 442 446 447
f 442 447 443
f 449 450 451
f 449 451 452
f 453 455 454
f 453 456 455
f 449 453 454
f 449 454 450
f 451 455 456
f 451 456 452
f 449 452 456
f 449 456 453
f 450 454 455
f 450 455 451
g surface
f 562 533 484
f 518 511 461
f 462 464 530
f 511 471 472
f 464 471 511
f 462 471 464
f 518 458 511
f 458 464 511
f 458 518 461
f 464 458 530
f 458 542 530
f 489 462 530
f 542 489 530
f 489 542 567
f 471 489 472
f 489 471 462
f 517 549 573
f 488 537 478
f 536 510 527
f 567 534 554
f 542 534 567
f 513 468 484
f 480 468 513
f 468 562 484
f 481 480 513
f 481 511 472
f 481 513 511
f 481 570 480
f 466 533 562
f 572 510 532
f 460 567 554
f 552 460 554
f 460 552 531
f 469 460 531
f 573 557 568
f 565 557 573
f 557 473 568
f 473 557 569
f 557 565 569
f 566 565 573
f 565 566 569
f 549 566 573
f 537 487 478
f 487 566 549
f 566 487 569
f 473 503 488
f 514 553 529
f 488 514 492
f 514 488 478
f 553 514 478
f 485 553 478
f 487 485 478
f 485 487 549
f 514 519 492
f 519 514 529
f 474 524 559
f 536 540 548
f 540 536 495
f 540 502 548
f 540 495 502
f 536 551 495
f 558 570 481
f 489 558 472
f 558 481 472
f 558 489 567
f 504 558 567
f 491 466 564
f 572 491 564
f 491 572 532
f 533 491 532
f 466 491 533
f 510 556 527
f 463 537 488
f 503 463 488
f 463 503 537
f 503 496 537
f 487 496 569
f 496 487 537
f 496 473 569
f 496 503 473
f 561 485 549
f 485 561 516
f 495 539 502
f 497 539 495
f 563 526 500
f 547 485 516
f 553 547 529
f 485 547 553
f 512 519 529
f 524 457 559
f 457 541 559
f 541 457 508
f 525 524 474
f 524 525 545
f 523 525 492
f 476 524 545
f 460 546 567
f 546 504 567
f 466 493 564
f 493 504 564
f 493 466 562
f 558 493 570
f 493 558 504
f 506 474 559
f 541 506 559
f 470 460 469
f 470 505 460
f 467 505 508
f 522 563 516
f 555 522 538
f 502 522 548
f 522 543 548
f 522 555 543
f 555 550 543
f 550 555 538
f 550 517 535
f 543 550 535
f 517 550 549
f 550 561 549
f 499 477 500
f 512 477 519
f 544 497 495
f 551 544 495
f 544 526 497
f 544 551 545
f 499 544 545
f 544 499 500
f 526 544 500
f 563 515 516
f 515 547 516
f 515 563 500
f 477 515 500
f 515 477 512
f 547 515 529
f 515 512 529
f 501 499 545
f 525 501 545
f 501 525 523
f 551 490 545
f 490 476 545
f 509 457 524
f 476 509 524
f 520 490 551
f 490 520 476
f 520 509 476
f 504 465 564
f 546 465 504
f 465 546 460
f 505 465 460
f 560 493 562
f 493 560 570
f 468 560 562
f 560 468 480
f 570 560 480
f 528 467 508
f 467 528 556
f 457 528 508
f 556 528 527
f 482 467 556
f 572 482 510
f 482 556 510
f 482 572 564
f 467 482 564
f 475 470 469
f 475 469 531
f 506 475 474
f 479 506 541
f 479 475 506
f 475 479 470
f 459 541 508
f 505 459 508
f 459 479 541
f 459 505 470
f 479 459 470
f 507 522 516
f 522 507 538
f 561 507 516
f 550 507 561
f 507 550 538
f 498 526 563
f 522 498 563
f 498 522 502
f 539 498 502
f 498 539 497
f 526 498 497
f 494 477 499
f 494 501 523
f 501 494 499
f 494 523 492
f 519 494 492
f 477 494 519
f 571 551 536
f 571 520 551
f 520 521 509
f 528 521 527
f 509 521 457
f 521 528 457
f 465 483 564
f 483 465 505
f 483 467 564
f 483 505 467
f 571 486 520
f 521 486 527
f 486 521 520
f 486 536 527
f 486 571 536
f 574 575 576
f 574 576 577
f 578 580 579
f 578 581 580
f 574 578 581
f 574 581 577
f 575 579 580
f 575 580 576
f 574 575 579
f 574 579 578
f 577 576 580
f 577 580 581
f 582 583 584
f 582 584 585
f 586 588 587
f 586 589 588
f 582 586 589
f 582 589 585
f 583 587 588
f 583 588 584
f 582 583 587
f 582 587 586
f 585 584 588
f 585 588 589
f 590 591 592
f 590 592 593
f 594 596 595
f 594 597 596
f 590 594 597
f 590 597 593
f 591 595 596
f 591 596 592
f 590 591 595
f 590 595 594
f 593 592 596
f 593 596 597
f 598 599 600
f 598 600 601
f 602 604 603
f 602 605 604
f 598 602 605
f 598 605 601
f 599 603 604
f 599 604 600
f 598 599 603
f 598 603 602
f 601 600 604
f 601 604 605
f 606 607 608
f 606 608 609
f 610 612 611
f 610 613 612
f 606 610 613
f 606 613 609
f 607 611 612
f 607 612 608
f 606 607 611
f 606 611 610
f 609 608 612
f 609 612 613
f 614 615 616
f 614 616 617
f 618 620 619
f 618 621 620
f 614 618 621
f 614 621 617
f 615 619 620
f 615 620 616
f 614 615 619
f 614 619 618
f 617 616 620
f 617 620 621
f 622 623 624
f 622 624 625
f 626 628 627
f 626 629 628
f 622 626 629
f 622 629 625
f 623 627 628
f 623 628 624
f 622 623 627
f 622 627 626
f 625 624 628
f 625 628 629
f 630 631 632
f 630 632 633
f 634 636 635
f 634 637 636
f 630 634 637
f 630 637 633
f 631 635 636
f 631 636 632
f 630 631 635
f 630 635 634
f 633 632 636
f 633 636 637
