# Generated by procedural_engine
v -4.992857 -4.185423 -0.500000
v 4.914286 -4.185423 -0.500000
v 4.914286 3.049303 -0.500000
v -4.992857 3.049303 -0.500000
v -4.992857 -4.185423 0.500000
v 4.914286 -4.185423 0.500000
v 4.914286 3.049303 0.500000
v -4.992857 3.049303 0.500000
v -2.364742 1.610695 0.050000
v -2.349543 1.658329 0.050000
v 0.136171 0.865189 0.050000
v 0.120972 0.817555 0.050000
v -2.364742 1.610695 -0.050000
v -2.349543 1.658329 -0.050000
v 0.136171 0.865189 -0.050000
v 0.120972 0.817555 -0.050000
v -4.857768 -2.462953 0.050000
v -4.899375 -2.435225 0.050000
v -1.835089 2.162846 0.050000
v -1.793482 2.135118 0.050000
v -4.857768 -2.462953 -0.050000
v -4.899375 -2.435225 -0.050000
v -1.835089 2.162846 -0.050000
v -1.793482 2.135118 -0.050000
v 2.471075 0.077972 0.050000
v 2.486067 0.125672 0.050000
v 4.600353 -0.538851 0.050000
v 4.585361 -0.586551 0.050000
v 2.471075 0.077972 -0.050000
v 2.486067 0.125672 -0.050000
v 4.600353 -0.538851 -0.050000
v 4.585361 -0.586551 -0.050000
v -3.778990 -0.747739 0.050000
v -3.821010 -0.720642 0.050000
v -1.899582 2.258993 0.050000
v -1.857561 2.231896 0.050000
v -3.778990 -0.747739 -0.050000
v -3.821010 -0.720642 -0.050000
v -1.899582 2.258993 -0.050000
v -1.857561 2.231896 -0.050000
v 2.117681 -3.588541 0.050000
v 2.110891 -3.539004 0.050000
v 3.596605 -3.335360 0.050000
v 3.603395 -3.384897 0.050000
v 2.117681 -3.588541 -0.050000
v 2.110891 -3.539004 -0.050000
v 3.596605 -3.335360 -0.050000
v 3.603395 -3.384897 -0.050000
v -3.919758 -1.793093 0.050000
v -3.951671 -1.754602 0.050000
v -2.115956 -0.232630 0.050000
v -2.084044 -0.271121 0.050000
v -3.919758 -1.793093 -0.050000
v -3.951671 -1.754602 -0.050000
v -2.115956 -0.232630 -0.050000
v -2.084044 -0.271121 -0.050000
v -2.135015 0.977988 0.050000
v -2.122128 1.026299 0.050000
v 0.127872 0.426085 0.050000
v 0.114985 0.377774 0.050000
v -2.135015 0.977988 -0.050000
v -2.122128 1.026299 -0.050000
v 0.127872 0.426085 -0.050000
v 0.114985 0.377774 -0.050000
v -3.750189 -0.650914 0.050000
v -3.792668 -0.624541 0.050000
v -2.235525 1.883498 0.050000
v -2.193046 1.857124 0.050000
v -3.750189 -0.650914 -0.050000
v -3.792668 -0.624541 -0.050000
v -2.235525 1.883498 -0.050000
v -2.193046 1.857124 -0.050000
v 2.974754 -3.459933 0.050000
v 2.968104 -3.410378 0.050000
v 4.725246 -3.174579 0.050000
v 4.731896 -3.224135 0.050000
v 2.974754 -3.459933 -0.050000
v 2.968104 -3.410378 -0.050000
v 4.725246 -3.174579 -0.050000
v 4.731896 -3.224135 -0.050000
v 0.075002 2.191507 0.050000
v 0.124998 2.192201 0.050000
v 0.160712 -0.380146 0.050000
v 0.110717 -0.380840 0.050000
v 0.075002 2.191507 -0.050000
v 0.124998 2.192201 -0.050000
v 0.160712 -0.380146 -0.050000
v 0.110717 -0.380840 -0.050000
v -2.293285 1.739304 0.050000
v -2.278143 1.786956 0.050000
v 0.150428 1.015252 0.050000
v 0.135286 0.967599 0.050000
v -2.293285 1.739304 -0.050000
v -2.278143 1.786956 -0.050000
v 0.150428 1.015252 -0.050000
v 0.135286 0.967599 -0.050000
v -3.901863 -1.285659 0.050000
v -3.940994 -1.254534 0.050000
v -2.090994 1.071297 0.050000
v -2.051863 1.040172 0.050000
v -3.901863 -1.285659 -0.050000
v -3.940994 -1.254534 -0.050000
v -2.090994 1.071297 -0.050000
v -2.051863 1.040172 -0.050000
v -3.901856 -1.264214 0.050000
v -3.941001 -1.233106 0.050000
v -2.126715 1.049852 0.050000
v -2.087571 1.018744 0.050000
v -3.901856 -1.264214 -0.050000
v -3.941001 -1.233106 -0.050000
v -2.126715 1.049852 -0.050000
v -2.087571 1.018744 -0.050000
v -4.857768 -2.473671 0.050000
v -4.899375 -2.445943 0.050000
v -1.827946 2.162846 0.050000
v -1.786339 2.135118 0.050000
v -4.857768 -2.473671 -0.050000
v -4.899375 -2.445943 -0.050000
v -1.827946 2.162846 -0.050000
v -1.786339 2.135118 -0.050000
v 2.367563 -3.438503 0.050000
v 2.361008 -3.388935 0.050000
v 4.468151 -3.110264 0.050000
v 4.474706 -3.159832 0.050000
v 2.367563 -3.438503 -0.050000
v 2.361008 -3.388935 -0.050000
v 4.468151 -3.110264 -0.050000
v 4.474706 -3.159832 -0.050000
v -0.454020 -3.461306 0.050000
v -0.503123 -3.451877 0.050000
v 0.104020 -0.290034 0.050000
v 0.153123 -0.299463 0.050000
v -0.454020 -3.461306 -0.050000
v -0.503123 -3.451877 -0.050000
v 0.104020 -0.290034 -0.050000
v 0.153123 -0.299463 -0.050000
v 0.311006 2.083385 0.050000
v 0.331851 2.128833 0.050000
v 2.224708 1.260666 0.050000
v 2.203863 1.215218 0.050000
v 0.311006 2.083385 -0.050000
v 0.331851 2.128833 -0.050000
v 2.224708 1.260666 -0.050000
v 2.203863 1.215218 -0.050000
v 0.652742 -3.760112 0.050000
v 0.647258 -3.710413 0.050000
v 2.104401 -3.549642 0.050000
v 2.109885 -3.599340 0.050000
v 0.652742 -3.760112 -0.050000
v 0.647258 -3.710413 -0.050000
v 2.104401 -3.549642 -0.050000
v 2.109885 -3.599340 -0.050000
v 2.740193 -1.659370 0.050000
v 2.745521 -1.609655 0.050000
v 4.445521 -1.791863 0.050000
v 4.440193 -1.841578 0.050000
v 2.740193 -1.659370 -0.050000
v 2.745521 -1.609655 -0.050000
v 4.445521 -1.791863 -0.050000
v 4.440193 -1.841578 -0.050000
v -1.980151 2.146989 0.050000
v -1.962706 2.193847 0.050000
v -0.062706 1.486451 0.050000
v -0.080151 1.439594 0.050000
v -1.980151 2.146989 -0.050000
v -1.962706 2.193847 -0.050000
v -0.062706 1.486451 -0.050000
v -0.080151 1.439594 -0.050000
v -2.015778 2.093366 0.050000
v -1.998508 2.140289 0.050000
v -0.484222 1.582947 0.050000
v -0.501492 1.536024 0.050000
v -2.015778 2.093366 -0.050000
v -1.998508 2.140289 -0.050000
v -0.484222 1.582947 -0.050000
v -0.501492 1.536024 -0.050000
v -1.882143 -2.877814 0.050000
v -1.932143 -2.877814 0.050000
v -1.932143 -1.055734 0.050000
v -1.882143 -1.055734 0.050000
v -1.882143 -2.877814 -0.050000
v -1.932143 -2.877814 -0.050000
v -1.932143 -1.055734 -0.050000
v -1.882143 -1.055734 -0.050000
v -2.060716 -2.460074 0.050000
v -2.110713 -2.459541 0.050000
v -2.096427 -1.119776 0.050000
v -2.046430 -1.120309 0.050000
v -2.060716 -2.460074 -0.050000
v -2.110713 -2.459541 -0.050000
v -2.096427 -1.119776 -0.050000
v -2.046430 -1.120309 -0.050000
v 2.486939 -2.752730 0.050000
v 2.484490 -2.702790 0.050000
v 4.670204 -2.595609 0.050000
v 4.672653 -2.645549 0.050000
v 2.486939 -2.752730 -0.050000
v 2.484490 -2.702790 -0.050000
v 4.670204 -2.595609 -0.050000
v 4.672653 -2.645549 -0.050000
v -1.281830 -4.220838 0.050000
v -1.289598 -4.171445 0.050000
v 0.346116 -3.914210 0.050000
v 0.353884 -3.963603 0.050000
v -1.281830 -4.220838 -0.050000
v -1.289598 -4.171445 -0.050000
v 0.346116 -3.914210 -0.050000
v 0.353884 -3.963603 -0.050000
v -2.051087 2.039630 0.050000
v -2.034628 2.086844 0.050000
v -0.620342 1.593810 0.050000
v -0.636801 1.546597 0.050000
v -2.051087 2.039630 -0.050000
v -2.034628 2.086844 -0.050000
v -0.620342 1.593810 -0.050000
v -0.636801 1.546597 -0.050000
v -4.735796 -3.037608 0.050000
v -4.707062 -2.996690 0.050000
v -3.257062 -4.014910 0.050000
v -3.285796 -4.055829 0.050000
v -4.735796 -3.037608 -0.050000
v -4.707062 -2.996690 -0.050000
v -3.257062 -4.014910 -0.050000
v -3.285796 -4.055829 -0.050000
v 0.182143 -3.724544 0.050000
v 0.132143 -3.724544 0.050000
v 0.132143 -2.063237 0.050000
v 0.182143 -2.063237 0.050000
v 0.182143 -3.724544 -0.050000
v 0.132143 -3.724544 -0.050000
v 0.132143 -2.063237 -0.050000
v 0.182143 -2.063237 -0.050000
v -0.667857 -2.706324 0.050000
v -0.717857 -2.706324 0.050000
v -0.717857 -1.473741 0.050000
v -0.667857 -1.473741 0.050000
v -0.667857 -2.706324 -0.050000
v -0.717857 -2.706324 -0.050000
v -0.717857 -1.473741 -0.050000
v -0.667857 -1.473741 -0.050000
v -3.959137 -2.838425 0.050000
v -3.955149 -2.788584 0.050000
v -2.348006 -2.917202 0.050000
v -2.351994 -2.967043 0.050000
v -3.959137 -2.838425 -0.050000
v -3.955149 -2.788584 -0.050000
v -2.348006 -2.917202 -0.050000
v -2.351994 -2.967043 -0.050000
v -1.257143 -2.731324 0.050000
v -1.257143 -2.681324 0.050000
v -0.400000 -2.681324 0.050000
v -0.400000 -2.731324 0.050000
v -1.257143 -2.731324 -0.050000
v -1.257143 -2.681324 -0.050000
v -0.400000 -2.681324 -0.050000
v -0.400000 -2.731324 -0.050000
v -3.953580 -3.392920 0.050000
v -4.003563 -3.391645 0.050000
v -3.946420 -1.151560 0.050000
v -3.896437 -1.152835 0.050000
v -3.953580 -3.392920 -0.050000
v -4.003563 -3.391645 -0.050000
v -3.946420 -1.151560 -0.050000
v -3.896437 -1.152835 -0.050000
v -2.186647 1.857369 0.050000
v -2.170496 1.904689 0.050000
v -0.506210 1.336629 0.050000
v -0.522361 1.289309 0.050000
v -2.186647 1.857369 -0.050000
v -2.170496 1.904689 -0.050000
v -0.506210 1.336629 -0.050000
v -0.522361 1.289309 -0.050000
v -2.622054 1.106179 0.050000
v -2.663661 1.133907 0.050000
v -1.935089 2.227155 0.050000
v -1.893482 2.199426 0.050000
v -2.622054 1.106179 -0.050000
v -2.663661 1.133907 -0.050000
v -1.935089 2.227155 -0.050000
v -1.893482 2.199426 -0.050000
v -2.232145 -2.845984 0.050000
v -2.282141 -2.845335 0.050000
v -2.260712 -1.194745 0.050000
v -2.210716 -1.195394 0.050000
v -2.232145 -2.845984 -0.050000
v -2.282141 -2.845335 -0.050000
v -2.260712 -1.194745 -0.050000
v -2.210716 -1.195394 -0.050000
v -4.943655 -2.538385 0.050000
v -4.942059 -2.488410 0.050000
v -4.270631 -2.509847 0.050000
v -4.272226 -2.559821 0.050000
v -4.943655 -2.538385 -0.050000
v -4.942059 -2.488410 -0.050000
v -4.270631 -2.509847 -0.050000
v -4.272226 -2.559821 -0.050000
v 0.568258 2.008309 0.050000
v 0.588885 2.053856 0.050000
v 2.174599 1.335742 0.050000
v 2.153972 1.290195 0.050000
v 0.568258 2.008309 -0.050000
v 0.588885 2.053856 -0.050000
v 2.174599 1.335742 -0.050000
v 2.153972 1.290195 -0.050000
v -2.664692 0.967177 0.050000
v -2.706736 0.994238 0.050000
v -1.899593 2.248257 0.050000
v -1.857550 2.221196 0.050000
v -2.664692 0.967177 -0.050000
v -2.706736 0.994238 -0.050000
v -1.899593 2.248257 -0.050000
v -1.857550 2.221196 -0.050000
v 2.739730 -1.498544 0.050000
v 2.745985 -1.448937 0.050000
v 4.445985 -1.663299 0.050000
v 4.439730 -1.712906 0.050000
v 2.739730 -1.498544 -0.050000
v 2.745985 -1.448937 -0.050000
v 4.445985 -1.663299 -0.050000
v 4.439730 -1.712906 -0.050000
v -3.666129 -0.985527 0.050000
v -3.705299 -0.954451 0.050000
v -2.098156 1.071272 0.050000
v -2.058987 1.040196 0.050000
v -3.666129 -0.985527 -0.050000
v -3.705299 -0.954451 -0.050000
v -2.098156 1.071272 -0.050000
v -2.058987 1.040196 -0.050000
v -0.967857 -2.695606 0.050000
v -1.017857 -2.695606 0.050000
v -1.017857 -1.559486 0.050000
v -0.967857 -1.559486 0.050000
v -0.967857 -2.695606 -0.050000
v -1.017857 -2.695606 -0.050000
v -1.017857 -1.559486 -0.050000
v -0.967857 -1.559486 -0.050000
v 2.353578 -1.109907 0.050000
v 2.403565 -1.108742 0.050000
v 2.439279 -2.641433 0.050000
v 2.389292 -2.642597 0.050000
v 2.353578 -1.109907 -0.050000
v 2.403565 -1.108742 -0.050000
v 2.439279 -2.641433 -0.050000
v 2.389292 -2.642597 -0.050000
v -3.746435 -3.671519 0.050000
v -3.796422 -3.670389 0.050000
v -3.724994 -0.508546 0.050000
v -3.675006 -0.509675 0.050000
v -3.746435 -3.671519 -0.050000
v -3.796422 -3.670389 -0.050000
v -3.724994 -0.508546 -0.050000
v -3.675006 -0.509675 -0.050000
v -4.690460 -3.039141 0.050000
v -4.666683 -2.995157 0.050000
v -3.516683 -3.616807 0.050000
v -3.540460 -3.660792 0.050000
v -4.690460 -3.039141 -0.050000
v -4.666683 -2.995157 -0.050000
v -3.516683 -3.616807 -0.050000
v -3.540460 -3.660792 -0.050000
v 0.739682 1.944003 0.050000
v 0.760318 1.989545 0.050000
v 2.203176 1.335740 0.050000
v 2.182539 1.290198 0.050000
v 0.739682 1.944003 -0.050000
v 0.760318 1.989545 -0.050000
v 2.203176 1.335740 -0.050000
v 2.182539 1.290198 -0.050000
g shell
f 1 3 2
f 1 4 3
f 5 6 7
f 5 7 8
f 1 2 6
f 1 6 5
f 4 7 3
f 4 8 7
f 1 5 8
f 1 8 4
f 2 3 7
f 2 7 6
g beams
f 9 10 11
f 9 11 12
f 13 15 14
f 13 16 15
f 9 13 14
f 9 14 10
f 11 15 16
f 11 16 12
f 9 12 16
f 9 16 13
f 10 14 15
f 10 15 11
f 17 18 19
f 17 19 20
f 21 23 22
f 21 24 23
f 17 21 22
f 17 22 18
f 19 23 24
f 19 24 20
f 17 20 24
f 17 24 21
f 18 22 23
f 18 23 19
f 25 26 27
f 25 27 28
f 29 31 30
f 29 32 31
f 25 29 30
f 25 30 26
f 27 31 32
f 27 32 28
f 25 28 32
f 25 32 29
f 26 30 31
f 26 31 27
f 33 34 35
f 33 35 36
f 37 39 38
f 37 40 39
f 33 37 38
f 33 38 34
f 35 39 40
f 35 40 36
f 33 36 40
f 33 40 37
f 34 38 39
f 34 39 35
f 41 42 43
f 41 43 44
f 45 47 46
f 45 48 47
f 41 45 46
f 41 46 42
f 43 47 48
f 43 48 44
f 41 44 48
f 41 48 45
f 42 46 47
f 42 47 43
f 49 50 51
f 49 51 52
f 53 55 54
f 53 56 55
f 49 53 54
f 49 54 50
f 51 55 56
f 51 56 52
f 49 52 56
f 49 56 53
f 50 54 55
f 50 55 51
f 57 58 59
f 57 59 60
f 61 63 62
f 61 64 63
f 57 61 62
f 57 62 58
f 59 63 64
f 59 64 60
f 57 60 64
f 57 64 61
f 58 62 63
f 58 63 59
f 65 66 67
f 65 67 68
f 69 71 70
f 69 72 71
f 65 69 70
f 65 70 66
f 67 71 72
f 67 72 68
f 65 68 72
f 65 72 69
f 66 70 71
f 66 71 67
f 73 74 75
f 73 75 76
f 77 79 78
f 77 80 79
f 73 77 78
f 73 78 74
f 75 79 80
f 75 80 76
f 73 76 80
f 73 80 77
f 74 78 79
f 74 79 75
f 81 82 83
f 81 83 84
f 85 87 86
f 85 88 87
f 81 85 86
f 81 86 82
f 83 87 88
f 83 88 84
f 81 84 88
f 81 88 85
f 82 86 87
f 82 87 83
f 89 90 91
f 89 91 92
f 93 95 94
f 93 96 95
f 89 93 94
f 89 94 90
f 91 95 96
f 91 96 92
f 89 92 96
f 89 96 93
f 90 94 95
f 90 95 91
f 97 98 99
f 97 99 100
f 101 103 102
f 101 104 103
f 97 101 102
f 97 102 98
f 99 103 104
f 99 104 100
f 97 100 104
f 97 104 101
f 98 102 103
f 98 103 99
f 105 106 107
f 105 107 108
f 109 111 110
f 109 112 111
f 105 109 110
f 105 110 106
f 107 111 112
f 107 112 108
f 105 108 112
f 105 112 109
f 106 110 111
f 106 111 107
f 113 114 115
f 113 115 116
f 117 119 118
f 117 120 119
f 113 117 118
f 113 118 114
f 115 119 120
f 115 120 116
f 113 116 120
f 113 120 117
f 114 118 119
f 114 119 115
f 121 122 123
f 121 123 124
f 125 127 126
f 125 128 127
f 121 125 126
f 121 126 122
f 123 127 128
f 123 128 124
f 121 124 128
f 121 128 125
f 122 126 127
f 122 127 123
f 129 130 131
f 129 131 132
f 133 135 134
f 133 136 135
f 129 133 134
f 129 134 130
f 131 135 136
f 131 136 132
f 129 132 136
f 129 136 133
f 130 134 135
f 130 135 131
f 137 138 139
f 137 139 140
f 141 143 142
f 141 144 143
f 137 141 142
f 137 142 138
f 139 143 144
f 139 144 140
f 137 140 144
f 137 144 141
f 138 142 143
f 138 143 139
f 145 146 147
f 145 147 148
f 149 151 150
f 149 152 151
f 145 149 150
f 145 150 146
f 147 151 152
f 147 152 148
f 145 148 152
f 145 152 149
f 146 150 151
f 146 151 147
f 153 154 155
f 153 155 156
f 157 159 158
f 157 160 159
f 153 157 158
f 153 158 154
f 155 159 160
f 155 160 156
f 153 156 160
f 153 160 157
f 154 158 159
f 154 159 155
f 161 162 163
f 161 163 164
f 165 167 166
f 165 168 167
f 161 165 166
f 161 166 162
f 163 167 168
f 163 168 164
f 161 164 168
f 161 168 165
f 162 166 167
f 162 167 163
f 169 170 171
f 169 171 172
f 173 175 174
f 173 176 175
f 169 173 174
f 169 174 170
f 171 175 176
f 171 176 172
f 169 172 176
f 169 176 173
f 170 174 175
f 170 175 171
f 177 178 179
f 177 179 180
f 181 183 182
f 181 184 183
f 177 181 182
f 177 182 178
f 179 183 184
f 179 184 180
f 177 180 184
f 177 184 181
f 178 182 183
f 178 183 179
f 185 186 187
f 185 187 188
f 189 191 190
f 189 192 191
f 185 189 190
f 185 190 186
f 187 191 192
f 187 192 188
f 185 188 192
f 185 192 189
f 186 190 191
f 186 191 187
f 193 194 195
f 193 195 196
f 197 199 198
f 197 200 199
f 193 197 198
f 193 198 194
f 195 199 200
f 195 200 196
f 193 196 200
f 193 200 197
f 194 198 199
f 194 199 195
f 201 202 203
f 201 203 204
f 205 207 206
f 205 208 207
f 201 205 206
f 201 206 202
f 203 207 208
f 203 208 204
f 201 204 208
f 201 208 205
f 202 206 207
f 202 207 203
f 209 210 211
f 209 211 212
f 213 215 214
f 213 216 215
f 209 213 214
f 209 214 210
f 211 215 216
f 211 216 212
f 209 212 216
f 209 216 213
f 210 214 215
f 210 215 211
f 217 218 219
f 217 219 220
f 221 223 222
f 221 224 223
f 217 221 222
f 217 222 218
f 219 223 224
f 219 224 220
f 217 220 224
f 217 224 221
f 218 222 223
f 218 223 219
f 225 226 227
f 225 227 228
f 229 231 230
f 229 232 231
f 225 229 230
f 225 230 226
f 227 231 232
f 227 232 228
f 225 228 232
f 225 232 229
f 226 230 231
f 226 231 227
f 233 234 235
f 233 235 236
f 237 239 238
f 237 240 239
f 233 237 238
f 233 238 234
f 235 239 240
f 235 240 236
f 233 236 240
f 233 240 237
f 234 238 239
f 234 239 235
f 241 242 243
f 241 243 244
f 245 247 246
f 245 248 247
f 241 245 246
f 241 246 242
f 243 247 248
f 243 248 244
f 241 244 248
f 241 248 245
f 242 246 247
f 242 247 243
f 249 250 251
f 249 251 252
f 253 255 254
f 253 256 255
f 249 253 254
f 249 254 250
f 251 255 256
f 251 256 252
f 249 252 256
f 249 256 253
f 250 254 255
f 250 255 251
f 257 258 259
f 257 259 260
f 261 263 262
f 261 264 263
f 257 261 262
f 257 262 258
f 259 263 264
f 259 264 260
f 257 260 264
f 257 264 261
f 258 262 263
f 258 263 259
f 265 266 267
f 265 267 268
f 269 271 270
f 269 272 271
f 265 269 270
f 265 270 266
f 267 271 272
f 267 272 268
f 265 268 272
f 265 272 269
f 266 270 271
f 266 271 267
f 273 274 275
f 273 275 276
f 277 279 278
f 277 280 279
f 273 277 278
f 273 278 274
f 275 279 280
f 275 280 276
f 273 276 280
f 273 280 277
f 274 278 279
f 274 279 275
f 281 282 283
f 281 283 284
f 285 287 286
f 285 288 287
f 281 285 286
f 281 286 282
f 283 287 288
f 283 288 284
f 281 284 288
f 281 288 285
f 282 286 287
f 282 287 283
f 289 290 291
f 289 291 292
f 293 295 294
f 293 296 295
f 289 293 294
f 289 294 290
f 291 295 296
f 291 296 292
f 289 292 296
f 289 296 293
f 290 294 295
f 290 295 291
f 297 298 299
f 297 299 300
f 301 303 302
f 301 304 303
f 297 301 302
f 297 302 298
f 299 303 304
f 299 304 300
f 297 300 304
f 297 304 301
f 298 302 303
f 298 303 299
f 305 306 307
f 305 307 308
f 309 311 310
f 309 312 311
f 305 309 310
f 305 310 306
f 307 311 312
f 307 312 308
f 305 308 312
f 305 312 309
f 306 310 311
f 306 311 307
f 313 314 315
f 313 315 316
f 317 319 318
f 317 320 319
f 313 317 318
f 313 318 314
f 315 319 320
f 315 320 316
f 313 316 320
f 313 320 317
f 314 318 319
f 314 319 315
f 321 322 323
f 321 323 324
f 325 327 326
f 325 328 327
f 321 325 326
f 321 326 322
f 323 327 328
f 323 328 324
f 321 324 328
f 321 328 325
f 322 326 327
f 322 327 323
f 329 330 331
f 329 331 332
f 333 335 334
f 333 336 335
f 329 333 334
f 329 334 330
f 331 335 336
f 331 336 332
f 329 332 336
f 329 336 333
f 330 334 335
f 330 335 331
f 337 338 339
f 337 339 340
f 341 343 342
f 341 344 343
f 337 341 342
f 337 342 338
f 339 343 344
f 339 344 340
f 337 340 344
f 337 344 341
f 338 342 343
f 338 343 339
f 345 346 347
f 345 347 348
f 349 351 350
f 349 352 351
f 345 349 350
f 345 350 346
f 347 351 352
f 347 352 348
f 345 348 352
f 345 352 349
f 346 350 351
f 346 351 347
f 353 354 355
f 353 355 356
f 357 359 358
f 357 360 359
f 353 357 358
f 353 358 354
f 355 359 360
f 355 360 356
f 353 356 360
f 353 360 357
f 354 358 359
f 354 359 355
f 361 362 363
f 361 363 364
f 365 367 366
f 365 368 367
f 361 365 366
f 361 366 362
f 363 367 368
f 363 368 364
f 361 364 368
f 361 368 365
f 362 366 367
f 362 367 363
