# Generated by procedural_engine
v -4.992857 -4.174705 -0.500000
v 4.957143 -4.174705 -0.500000
v 4.957143 2.320472 -0.500000
v -4.992857 2.320472 -0.500000
v -4.992857 -4.174705 0.500000
v 4.957143 -4.174705 0.500000
v 4.957143 2.320472 0.500000
v -4.992857 2.320472 0.500000
v -4.222054 -1.509041 0.000000
v -4.263661 -1.481313 0.000000
v -1.856518 2.130692 0.000000
v -1.814911 2.102963 0.000000
v 0.103573 2.223747 0.000000
v 0.153570 2.224270 0.000000
v 0.210713 -3.241968 0.000000
v 0.160716 -3.242491 0.000000
v -2.307551 1.685707 0.000000
v -2.292449 1.733372 0.000000
v 0.143265 0.961667 0.000000
v 0.128163 0.914002 0.000000
v 2.220926 0.163765 0.000000
v 2.236217 0.211369 0.000000
v 4.671932 -0.571053 0.000000
v 4.656640 -0.618657 0.000000
v -2.061665 -0.029947 0.000000
v -2.052621 0.019229 0.000000
v 0.511665 -0.452368 0.000000
v 0.502621 -0.501544 0.000000
v -2.840286 0.087962 0.000000
v -2.831143 0.137119 0.000000
v 0.568857 -0.495250 0.000000
v 0.559714 -0.544407 0.000000
v 0.082144 2.234454 0.000000
v 0.132141 2.234999 0.000000
v 0.182141 -2.352353 0.000000
v 0.132144 -2.352898 0.000000
v 1.350022 0.474428 0.000000
v 1.364264 0.522357 0.000000
v 2.807121 0.093632 0.000000
v 2.792879 0.045703 0.000000
v -2.464725 1.642844 0.000000
v -2.449560 1.690489 0.000000
v 0.143297 0.865194 0.000000
v 0.128132 0.817550 0.000000
v -3.494219 -1.605885 0.000000
v -3.491495 -1.555959 0.000000
v -3.098638 -1.577395 0.000000
v -3.101362 -1.627321 0.000000
v 2.229290 -0.265318 0.000000
v 2.242139 -0.216997 0.000000
v 3.370710 -0.517104 0.000000
v 3.357861 -0.565425 0.000000
v -3.688444 -1.190227 0.000000
v -3.725842 -1.157040 0.000000
v -1.861556 0.943711 0.000000
v -1.824158 0.910523 0.000000
v -2.341515 0.709873 0.000000
v -2.329914 0.758509 0.000000
v 0.141515 0.169012 0.000000
v 0.129914 0.120377 0.000000
v -2.878790 0.688802 0.000000
v -2.921210 0.715271 0.000000
v -1.871210 2.398015 0.000000
v -1.828790 2.371546 0.000000
v -3.778986 -0.758452 0.000000
v -3.821014 -0.731366 0.000000
v -2.142442 1.873136 0.000000
v -2.100415 1.846050 0.000000
v -2.370023 0.677704 0.000000
v -2.358548 0.726369 0.000000
v 0.141452 0.136873 0.000000
v 0.129977 0.088208 0.000000
v -0.068173 -3.685023 0.000000
v -0.074685 -3.635449 0.000000
v 2.046744 -3.356778 0.000000
v 2.053256 -3.406352 0.000000
v 0.105859 -1.788097 0.000000
v 0.108427 -1.738163 0.000000
v 2.401284 -1.856062 0.000000
v 2.398716 -1.905996 0.000000
v -1.563410 0.709989 0.000000
v -1.550876 0.758393 0.000000
v 0.063410 0.340386 0.000000
v 0.050876 0.291983 0.000000
v -0.061670 -0.405080 0.000000
v -0.052616 -0.355906 0.000000
v 2.275955 -0.784631 0.000000
v 2.266902 -0.833804 0.000000
v 0.137592 -3.192132 0.000000
v 0.133837 -3.142273 0.000000
v 1.983837 -3.002938 0.000000
v 1.987592 -3.052796 0.000000
v 2.367531 -3.438508 0.000000
v 2.361040 -3.388931 0.000000
v 4.489612 -3.110260 0.000000
v 4.496102 -3.159837 0.000000
v 2.814896 -2.731316 0.000000
v 2.813676 -2.681331 0.000000
v 3.692247 -2.659895 0.000000
v 3.693467 -2.709880 0.000000
v -2.553880 -4.188773 0.000000
v -2.560405 -4.139201 0.000000
v -2.153263 -4.085610 0.000000
v -2.146737 -4.135183 0.000000
v 2.266524 -0.715833 0.000000
v 2.276333 -0.666804 0.000000
v 2.812047 -0.773985 0.000000
v 2.802238 -0.823014 0.000000
v -2.279027 1.739313 0.000000
v -2.263830 1.786947 0.000000
v -0.113830 1.100988 0.000000
v -0.129027 1.053353 0.000000
v 3.539002 -3.384912 0.000000
v 3.532427 -3.335346 0.000000
v 4.825284 -3.163856 0.000000
v 4.831859 -3.213422 0.000000
v 3.171099 -0.136397 0.000000
v 3.186044 -0.088683 0.000000
v 4.657472 -0.549562 0.000000
v 4.642528 -0.597276 0.000000
v 0.194787 -3.159974 0.000000
v 0.190928 -3.110123 0.000000
v 1.990928 -2.970787 0.000000
v 1.994787 -3.020638 0.000000
v -3.211130 -0.923592 0.000000
v -3.246012 -0.887769 0.000000
v -1.903155 0.419840 0.000000
v -1.868273 0.384018 0.000000
v 2.229247 -0.211716 0.000000
v 2.242181 -0.163418 0.000000
v 4.563610 -0.785068 0.000000
v 4.550676 -0.833367 0.000000
v -2.550493 1.739324 0.000000
v -2.535222 1.786935 0.000000
v 1.307636 0.554352 0.000000
v 1.292364 0.506741 0.000000
v 2.749300 0.174547 0.000000
v 2.764986 0.222023 0.000000
v 3.543557 -0.035212 0.000000
v 3.527871 -0.082688 0.000000
v -3.793055 -0.725956 0.000000
v -3.835516 -0.699553 0.000000
v -2.242659 1.862076 0.000000
v -2.200198 1.835673 0.000000
v 2.641643 0.421240 0.000000
v 2.658357 0.468364 0.000000
v 3.836928 0.050357 0.000000
v 3.820215 0.003233 0.000000
v -3.359251 -0.632158 0.000000
v -3.397892 -0.600426 0.000000
v -2.033606 1.060882 0.000000
v -1.994966 1.029150 0.000000
v -0.158476 -1.798812 0.000000
v -0.155810 -1.748883 0.000000
v 1.851333 -1.856065 0.000000
v 1.848667 -1.905993 0.000000
v -2.151543 2.254156 0.000000
v -2.134172 2.301042 0.000000
v -0.398457 1.657955 0.000000
v -0.415828 1.611070 0.000000
v 2.747397 -1.659376 0.000000
v 2.752603 -1.609648 0.000000
v 3.981174 -1.738266 0.000000
v 3.975968 -1.787994 0.000000
v -3.497558 -1.320830 0.000000
v -3.531013 -1.283671 0.000000
v -1.888156 0.195428 0.000000
v -1.854701 0.158269 0.000000
v -0.570936 0.560038 0.000000
v -0.557635 0.608236 0.000000
v 0.063793 0.436747 0.000000
v 0.050492 0.388548 0.000000
v -1.537277 1.921902 0.000000
v -1.519865 1.968773 0.000000
v -0.048437 1.422149 0.000000
v -0.065849 1.375279 0.000000
v -3.224784 -0.794336 0.000000
v -3.260930 -0.759790 0.000000
v -1.939502 0.622847 0.000000
v -1.903355 0.588300 0.000000
v -1.156234 0.634954 0.000000
v -1.143766 0.683374 0.000000
v 0.063377 0.372549 0.000000
v 0.050909 0.324128 0.000000
v -2.863273 -2.934947 0.000000
v -2.865299 -2.884988 0.000000
v -2.336727 -2.863552 0.000000
v -2.334701 -2.913511 0.000000
v 2.499445 0.174500 0.000000
v 2.514841 0.222070 0.000000
v 4.336269 -0.367426 0.000000
v 4.320873 -0.414996 0.000000
v 2.268875 -1.552200 0.000000
v 2.273983 -1.502462 0.000000
v 4.152554 -1.695388 0.000000
v 4.147446 -1.745126 0.000000
v -0.024221 2.136759 0.000000
v -0.004350 2.182641 0.000000
v 1.752792 1.421655 0.000000
v 1.732922 1.375773 0.000000
v 2.539036 -3.524242 0.000000
v 2.532392 -3.474686 0.000000
v 4.610964 -3.196015 0.000000
v 4.617608 -3.245571 0.000000
v 1.781713 -3.449239 0.000000
v 1.775430 -3.399635 0.000000
v 3.975430 -3.120965 0.000000
v 3.981713 -3.170568 0.000000
v -3.605438 -1.525112 0.000000
v -3.637419 -1.486678 0.000000
v -2.065991 -0.179068 0.000000
v -2.034009 -0.217502 0.000000
v 2.300487 -2.645574 0.000000
v 2.299513 -2.595584 0.000000
v 2.849513 -2.584865 0.000000
v 2.850487 -2.634856 0.000000
v 0.045463 -0.458669 0.000000
v 0.054537 -0.409499 0.000000
v 2.261680 -0.816787 0.000000
v 2.252606 -0.865957 0.000000
v 0.461073 2.061919 0.000000
v 0.481784 2.107428 0.000000
v 2.224641 1.314287 0.000000
v 2.203931 1.268778 0.000000
v -1.701806 1.490404 0.000000
v -1.741051 1.521386 0.000000
v -1.191051 2.218063 0.000000
v -1.151806 2.187081 0.000000
v 0.567010 -3.770832 0.000000
v 0.561561 -3.721130 0.000000
v 2.125847 -3.549640 0.000000
v 2.131296 -3.599342 0.000000
v 2.206507 0.367452 0.000000
v 2.222064 0.414970 0.000000
v 2.614921 0.286353 0.000000
v 2.599364 0.238835 0.000000
v -1.562162 0.066613 0.000000
v -1.552124 0.115595 0.000000
v 0.069304 -0.216666 0.000000
v 0.059267 -0.265649 0.000000
v -3.364911 -0.169277 0.000000
v -3.406518 -0.141549 0.000000
v -1.885089 2.141410 0.000000
v -1.843482 2.113681 0.000000
v -3.695546 -1.243772 0.000000
v -3.733025 -1.210676 0.000000
v -1.840168 0.932946 0.000000
v -1.802689 0.899851 0.000000
v -2.686818 2.039636 0.000000
v -2.670324 2.086837 0.000000
v -2.148896 1.904630 0.000000
v -2.165390 1.857428 0.000000
v -3.673266 -0.996237 0.000000
v -3.712448 -0.965177 0.000000
v -2.098163 1.071264 0.000000
v -2.058980 1.040204 0.000000
v -3.407396 -0.136548 0.000000
v -3.449747 -0.109969 0.000000
v -2.756889 0.993997 0.000000
v -2.714539 0.967418 0.000000
v -0.482599 1.509381 0.000000
v -0.517401 1.545282 0.000000
v 0.289742 2.327704 0.000000
v 0.324544 2.291803 0.000000
v -0.461157 -3.504148 0.000000
v -0.510272 -3.494780 0.000000
v 0.068300 -0.461554 0.000000
v 0.117414 -0.470922 0.000000
v -3.244991 -0.557162 0.000000
v -3.283580 -0.525367 0.000000
v -2.312151 0.653625 0.000000
v -2.273563 0.621830 0.000000
v -3.073815 -0.375255 0.000000
v -3.111900 -0.342858 0.000000
v -1.990471 0.975470 0.000000
v -1.952386 0.943073 0.000000
v 2.746756 -1.498529 0.000000
v 2.753244 -1.448952 0.000000
v 3.981815 -1.609724 0.000000
v 3.975328 -1.659301 0.000000
v -1.329381 -2.774183 0.000000
v -1.327762 -2.724209 0.000000
v -0.334905 -2.756364 0.000000
v -0.336524 -2.806337 0.000000
v -1.942857 -2.742042 0.000000
v -1.942857 -2.692042 0.000000
v -1.142857 -2.692042 0.000000
v -1.142857 -2.742042 0.000000
v 2.307679 -2.752754 0.000000
v 2.306607 -2.702766 0.000000
v 2.806607 -2.692048 0.000000
v 2.807679 -2.742036 0.000000
v -0.967857 -2.706324 0.000000
v -1.017857 -2.706324 0.000000
v -1.017857 -1.130761 0.000000
v -0.967857 -1.130761 0.000000
v -0.340496 -3.577593 0.000000
v -0.330932 -3.528516 0.000000
v 0.219068 -3.635697 0.000000
v 0.209504 -3.684774 0.000000
v 0.725399 1.901129 0.000000
v 0.746030 1.946674 0.000000
v 2.260316 1.260715 0.000000
v 2.239684 1.215170 0.000000
v -3.695556 -1.233065 0.000000
v -3.733015 -1.199947 0.000000
v -1.847301 0.932958 0.000000
v -1.809842 0.899840 0.000000
v -2.030181 2.157718 0.000000
v -2.012676 2.204554 0.000000
v -0.062676 1.475722 0.000000
v -0.080181 1.428887 0.000000
v 3.700552 -2.699163 0.000000
v 3.699448 -2.649175 0.000000
v 4.670877 -2.627739 0.000000
v 4.671980 -2.677727 0.000000
v -0.969791 -1.143450 0.000000
v -0.987352 -1.096636 0.000000
v -0.358781 -0.860837 0.000000
v -0.341219 -0.907652 0.000000
v -1.356626 -2.677728 0.000000
v -1.357660 -2.627738 0.000000
v -0.321946 -2.606302 0.000000
v -0.320911 -2.656292 0.000000
v -3.217652 -0.826502 0.000000
v -3.253777 -0.791933 0.000000
v -2.053777 0.462086 0.000000
v -2.017652 0.427517 0.000000
v -3.161060 -0.902086 0.000000
v -3.196083 -0.866402 0.000000
v -2.060369 0.248282 0.000000
v -2.025345 0.212597 0.000000
v -3.007574 0.431233 0.000000
v -3.049569 0.458371 0.000000
v -2.135283 1.873162 0.000000
v -2.093289 1.846024 0.000000
v -1.208683 1.761122 0.000000
v -1.191317 1.808010 0.000000
v -0.062745 1.390003 0.000000
v -0.080112 1.343116 0.000000
v -3.461844 -1.310112 0.000000
v -3.495299 -1.272953 0.000000
v -2.531013 -0.404786 0.000000
v -2.497558 -0.441945 0.000000
v -2.060717 -2.460204 0.000000
v -2.110711 -2.459410 0.000000
v -2.089283 -1.108928 0.000000
v -2.039289 -1.109721 0.000000
v 4.128439 -0.361539 0.000000
v 4.142989 -0.313702 0.000000
v 4.671561 -0.474474 0.000000
v 4.657011 -0.522310 0.000000
v -4.940409 -3.063465 0.000000
v -4.945305 -3.013705 0.000000
v -4.509591 -2.970833 0.000000
v -4.504695 -3.020593 0.000000
v 0.018681 2.147458 0.000000
v 0.038462 2.193378 0.000000
v 1.531319 1.550291 0.000000
v 1.511538 1.504371 0.000000
v -4.100686 -2.098946 0.000000
v -4.099314 -2.048964 0.000000
v -2.927885 -2.081119 0.000000
v -2.929257 -2.131100 0.000000
v -4.089292 -2.610401 0.000000
v -4.139280 -2.609320 0.000000
v -4.096423 -0.626469 0.000000
v -4.046434 -0.627550 0.000000
v -2.068281 -0.255118 0.000000
v -2.060291 -0.205761 0.000000
v -0.338862 -0.484432 0.000000
v -0.346852 -0.533789 0.000000
v -2.206302 0.870770 0.000000
v -2.193698 0.919155 0.000000
v -1.165126 0.651202 0.000000
v -1.177731 0.602817 0.000000
v -3.953579 -3.532238 0.000000
v -4.003564 -3.530999 0.000000
v -3.932135 -0.647827 0.000000
v -3.882151 -0.649065 0.000000
v 0.128038 0.849734 0.000000
v 0.143391 0.897319 0.000000
v 2.236248 0.222077 0.000000
v 2.220895 0.174493 0.000000
v -4.093315 -2.291877 0.000000
v -4.092400 -2.241885 0.000000
v -2.920971 -2.263321 0.000000
v -2.921886 -2.313313 0.000000
v 2.296434 -1.442099 0.000000
v 2.346423 -1.441074 0.000000
v 2.389280 -3.531106 0.000000
v 2.339291 -3.532131 0.000000
v -4.092857 -2.334753 0.000000
v -4.092857 -2.284753 0.000000
v -2.921429 -2.284753 0.000000
v -2.921429 -2.334753 0.000000
v -1.619440 0.313158 0.000000
v -1.609131 0.362083 0.000000
v 0.069440 0.008386 0.000000
v 0.059131 -0.040540 0.000000
v -1.355805 -2.645543 0.000000
v -1.358481 -2.595615 0.000000
v -0.558481 -2.552742 0.000000
v -0.555805 -2.602671 0.000000
v -2.519461 0.473934 0.000000
v -2.509110 0.522851 0.000000
v -0.280539 0.051254 0.000000
v -0.290890 0.002337 0.000000
v -4.950000 -2.163264 0.000000
v -4.950000 -2.113264 0.000000
v -4.264286 -2.113264 0.000000
v -4.264286 -2.163264 0.000000
v -3.476145 -1.331562 0.000000
v -3.509569 -1.294375 0.000000
v -2.102426 -0.029638 0.000000
v -2.069003 -0.066825 0.000000
v -3.916307 -2.838423 0.000000
v -3.912265 -2.788587 0.000000
v -2.855122 -2.874332 0.000000
v -2.859164 -2.924168 0.000000
v -0.960437 -4.177971 0.000000
v -0.968134 -4.128567 0.000000
v 0.339009 -3.924923 0.000000
v 0.346706 -3.974327 0.000000
v 3.764159 0.013594 0.000000
v 3.778698 0.061433 0.000000
v 4.342984 -0.110057 0.000000
v 4.328445 -0.157896 0.000000
v -0.235879 1.139007 0.000000
v -0.221264 1.186823 0.000000
v 0.164451 1.068924 0.000000
v 0.149835 1.021108 0.000000
v 3.285051 -0.007673 0.000000
v 3.300663 0.039827 0.000000
v 4.050663 -0.206689 0.000000
v 4.035051 -0.254189 0.000000
v -3.904440 -2.473942 0.000000
v -3.909845 -2.424235 0.000000
v -2.924131 -2.317054 0.000000
v -2.918726 -2.366761 0.000000
v 4.485714 -2.570552 0.000000
v 4.485714 -2.520552 0.000000
v 4.992857 -2.520552 0.000000
v 4.992857 -2.570552 0.000000
v 3.068425 -1.584304 0.000000
v 3.074432 -1.534667 0.000000
v 3.960146 -1.641848 0.000000
v 3.954139 -1.691486 0.000000
v -1.925001 -2.867337 0.000000
v -1.974999 -2.866854 0.000000
v -1.960713 -1.387754 0.000000
v -1.910715 -1.388237 0.000000
v 2.300974 -2.666996 0.000000
v 2.299026 -2.617034 0.000000
v 2.849026 -2.595598 0.000000
v 2.850974 -2.645560 0.000000
v 0.777251 -1.852403 0.000000
v 0.779892 -1.802473 0.000000
v 2.401320 -1.888218 0.000000
v 2.398680 -1.938148 0.000000
v -2.120724 0.977987 0.000000
v -2.107847 1.026300 0.000000
v 0.063582 0.447522 0.000000
v 0.050704 0.399209 0.000000
v -4.082557 -2.034446 0.000000
v -4.088872 -1.984846 0.000000
v -2.910300 -1.834793 0.000000
v -2.903985 -1.884393 0.000000
v -0.667857 -2.706324 0.000000
v -0.717857 -2.706324 0.000000
v -0.717857 -1.023580 0.000000
v -0.667857 -1.023580 0.000000
v -2.233725 -1.605843 0.000000
v -2.237703 -1.556001 0.000000
v -1.566275 -1.502410 0.000000
v -1.562297 -1.552252 0.000000
v -4.683475 -3.028337 0.000000
v -4.659383 -2.984524 0.000000
v -3.509383 -3.616893 0.000000
v -3.533475 -3.660706 0.000000
v -2.957768 0.452374 0.000000
v -2.999375 0.480102 0.000000
v -1.727946 2.387926 0.000000
v -1.686339 2.360198 0.000000
v 2.292370 -2.324031 0.000000
v 2.293344 -2.274040 0.000000
v 2.843344 -2.284758 0.000000
v 2.842370 -2.334749 0.000000
v 2.796040 -1.166163 0.000000
v 2.803960 -1.116795 0.000000
v 3.939675 -1.299003 0.000000
v 3.931754 -1.348371 0.000000
v -2.529609 1.975304 0.000000
v -2.513248 2.022552 0.000000
v -1.956105 1.829626 0.000000
v -1.972466 1.782378 0.000000
v -0.329337 1.149917 0.000000
v -0.313520 1.197350 0.000000
v 0.136480 1.047296 0.000000
v 0.120663 0.999864 0.000000
v -1.400000 -2.731324 0.000000
v -1.400000 -2.681324 0.000000
v -0.335714 -2.681324 0.000000
v -0.335714 -2.731324 0.000000
v -1.296429 -2.738478 0.000000
v -1.346429 -2.738478 0.000000
v -1.346429 -1.366559 0.000000
v -1.296429 -1.366559 0.000000
v -4.978571 -2.549116 0.000000
v -4.978571 -2.499116 0.000000
v -4.464286 -2.499116 0.000000
v -4.464286 -2.549116 0.000000
v -2.097931 0.173805 0.000000
v -2.087784 0.222765 0.000000
v -0.794926 -0.045188 0.000000
v -0.805074 -0.094148 0.000000
v 2.339292 -0.220293 0.000000
v 2.389279 -0.219149 0.000000
v 2.446422 -2.716470 0.000000
v 2.396435 -2.717614 0.000000
v -1.578808 1.546318 0.000000
v -1.564049 1.594090 0.000000
v -1.078335 1.444036 0.000000
v -1.093094 1.396264 0.000000
v 2.393529 0.517117 0.000000
v 2.406471 0.565413 0.000000
v 2.806471 0.458232 0.000000
v 2.793529 0.409935 0.000000
v -2.010717 -2.181469 0.000000
v -2.060712 -2.180803 0.000000
v -2.046426 -1.108992 0.000000
v -1.996431 -1.109658 0.000000
v -3.111100 -0.816381 0.000000
v -3.146043 -0.780618 0.000000
v -1.917472 0.419811 0.000000
v -1.882528 0.384048 0.000000
v -2.498962 -4.091148 0.000000
v -2.515323 -4.043900 0.000000
v -2.051038 -3.883129 0.000000
v -2.034677 -3.930376 0.000000
v -1.225000 -2.299035 0.000000
v -1.275000 -2.299035 0.000000
v -1.275000 -1.023580 0.000000
v -1.225000 -1.023580 0.000000
v -4.085714 -2.141827 0.000000
v -4.085714 -2.091827 0.000000
v -2.914286 -2.091827 0.000000
v -2.914286 -2.141827 0.000000
v 2.232150 -0.852679 0.000000
v 2.282136 -0.851501 0.000000
v 2.332136 -2.973688 0.000000
v 2.282150 -2.974865 0.000000
v -1.896430 -2.878096 0.000000
v -1.946427 -2.877531 0.000000
v -1.932141 -1.612794 0.000000
v -1.882144 -1.613358 0.000000
v 2.725015 -0.820797 0.000000
v 2.774985 -0.819074 0.000000
v 2.839271 -2.684026 0.000000
v 2.789301 -2.685749 0.000000
v -2.247973 0.238123 0.000000
v -2.237741 0.287065 0.000000
v 0.069401 -0.195250 0.000000
v 0.059170 -0.244192 0.000000
v -1.429092 1.589280 0.000000
v -1.413765 1.636873 0.000000
v 0.150520 1.133121 0.000000
v 0.135194 1.085528 0.000000
v -4.978571 -2.195418 0.000000
v -4.978571 -2.145418 0.000000
v -4.564286 -2.145418 0.000000
v -4.564286 -2.195418 0.000000
v -0.350818 1.149935 0.000000
v -0.334896 1.197332 0.000000
v 0.143676 1.036560 0.000000
v 0.127753 0.989163 0.000000
v -2.000593 1.782229 0.000000
v -1.985121 1.829775 0.000000
v -0.799407 1.443923 0.000000
v -0.814879 1.396377 0.000000
v -2.569727 -2.591930 0.000000
v -2.573130 -2.542046 0.000000
v -2.101701 -2.509892 0.000000
v -2.098299 -2.559776 0.000000
v -4.097350 -2.998870 0.000000
v -4.088365 -2.949683 0.000000
v -3.266936 -3.099737 0.000000
v -3.275921 -3.148923 0.000000
v -2.572015 -2.763471 0.000000
v -2.570843 -2.713485 0.000000
v -2.113700 -2.724203 0.000000
v -2.114872 -2.774189 0.000000
v -1.637536 -3.598918 0.000000
v -1.648178 -3.550064 0.000000
v -1.205321 -3.453601 0.000000
v -1.194679 -3.502455 0.000000
v -3.577756 -2.763465 0.000000
v -3.579387 -2.713491 0.000000
v -2.922244 -2.692055 0.000000
v -2.920613 -2.742029 0.000000
v -1.289717 -3.395524 0.000000
v -1.281711 -3.346169 0.000000
v -0.488854 -3.474787 0.000000
v -0.496860 -3.524142 0.000000
v -4.976581 -2.119855 0.000000
v -4.966277 -2.070928 0.000000
v -4.559134 -2.156673 0.000000
v -4.569438 -2.205599 0.000000
v -1.486458 -3.630812 0.000000
v -1.499257 -3.582478 0.000000
v -1.134971 -3.486015 0.000000
v -1.122172 -3.534349 0.000000
v -4.614358 -3.123360 0.000000
v -4.585642 -3.082428 0.000000
v -3.485642 -3.854132 0.000000
v -3.514358 -3.895064 0.000000
v -2.989292 -2.856918 0.000000
v -3.039280 -2.855836 0.000000
v -3.003566 -1.205247 0.000000
v -2.953577 -1.206329 0.000000
v -1.739286 -2.888532 0.000000
v -1.789286 -2.888532 0.000000
v -1.789286 -1.184352 0.000000
v -1.739286 -1.184352 0.000000
v -2.223695 -1.227709 0.000000
v -2.247733 -1.183866 0.000000
v -1.876305 -0.980222 0.000000
v -1.852267 -1.024065 0.000000
v 3.431754 -3.245590 0.000000
v 3.425389 -3.195997 0.000000
v 4.511103 -3.056661 0.000000
v 4.517468 -3.106254 0.000000
v -3.913746 -2.720600 0.000000
v -3.914825 -2.670611 0.000000
v -2.921968 -2.649175 0.000000
v -2.920889 -2.699164 0.000000
v 2.484216 -2.334709 0.000000
v 2.487212 -2.284798 0.000000
v 2.844355 -2.306235 0.000000
v 2.841359 -2.356145 0.000000
v -2.571429 -2.613424 0.000000
v -2.571429 -2.563424 0.000000
v -2.107143 -2.563424 0.000000
v -2.107143 -2.613424 0.000000
v -2.553003 -1.519996 0.000000
v -2.546997 -1.470358 0.000000
v -2.104139 -1.523948 0.000000
v -2.110146 -1.573586 0.000000
v -2.062314 0.409624 0.000000
v -2.051971 0.458543 0.000000
v -0.480543 0.126281 0.000000
v -0.490886 0.077363 0.000000
v -2.217858 -2.492147 0.000000
v -2.267856 -2.491776 0.000000
v -2.260714 -1.527146 0.000000
v -2.210715 -1.527516 0.000000
v -3.910728 -3.296658 0.000000
v -3.960700 -3.294981 0.000000
v -3.910700 -1.805164 0.000000
v -3.860728 -1.806841 0.000000
v 4.403597 -1.356968 0.000000
v 4.453546 -1.354715 0.000000
v 4.517832 -2.780224 0.000000
v 4.467883 -2.782477 0.000000
v -2.080139 2.071958 0.000000
v -2.062718 2.118825 0.000000
v -1.284147 1.829436 0.000000
v -1.301567 1.782569 0.000000
v -2.425192 -4.081577 0.000000
v -2.431950 -4.032035 0.000000
v -2.039093 -3.978445 0.000000
v -2.032335 -4.027986 0.000000
v -3.687835 -1.039461 0.000000
v -3.726451 -1.007699 0.000000
v -2.747879 0.182012 0.000000
v -2.709264 0.150250 0.000000
v 0.121024 0.871129 0.000000
v 0.136119 0.918796 0.000000
v 1.557548 0.468635 0.000000
v 1.542452 0.420968 0.000000
v -3.863717 -2.731317 0.000000
v -3.864854 -2.681330 0.000000
v -2.921997 -2.659894 0.000000
v -2.920860 -2.709881 0.000000
v -0.996429 -2.684887 0.000000
v -1.046429 -2.684887 0.000000
v -1.046429 -1.270096 0.000000
v -0.996429 -1.270096 0.000000
v 0.160726 -3.253704 0.000000
v 0.210703 -3.252191 0.000000
v 0.232131 -3.959586 0.000000
v 0.182154 -3.961100 0.000000
v -4.306065 1.524514 0.000000
v -4.293935 1.573020 0.000000
v -3.865363 1.465839 0.000000
v -3.877494 1.417333 0.000000
v 0.324224 -3.802978 0.000000
v 0.318633 -3.753292 0.000000
v 0.890061 -3.688983 0.000000
v 0.895653 -3.738670 0.000000
v 2.450000 -2.538398 0.000000
v 2.450000 -2.488398 0.000000
v 2.842857 -2.488398 0.000000
v 2.842857 -2.538398 0.000000
v -3.207393 0.174283 0.000000
v -3.249750 0.200851 0.000000
v -2.564036 1.294098 0.000000
v -2.521678 1.267531 0.000000
v -2.089288 -1.913492 0.000000
v -2.139284 -1.912875 0.000000
v -2.132141 -1.334097 0.000000
v -2.082145 -1.334714 0.000000
v -3.725006 -2.814045 0.000000
v -3.774994 -2.812965 0.000000
v -3.732137 -0.830114 0.000000
v -3.682149 -0.831194 0.000000
v -0.367857 -1.999076 0.000000
v -0.317858 -1.998781 0.000000
v -0.310715 -3.209928 0.000000
v -0.360714 -3.210222 0.000000
v -1.351421 1.803951 0.000000
v -1.334293 1.850926 0.000000
v -0.570008 1.572255 0.000000
v -0.587135 1.525280 0.000000
v -2.553573 -3.521144 0.000000
v -2.603570 -3.520657 0.000000
v -2.589285 -2.052276 0.000000
v -2.539287 -2.052762 0.000000
v -3.616155 -0.910532 0.000000
v -3.655274 -0.879393 0.000000
v -2.119560 1.049868 0.000000
v -2.080440 1.018728 0.000000
v -0.946429 -2.684887 0.000000
v -0.996429 -2.684887 0.000000
v -0.996429 -1.484459 0.000000
v -0.946429 -1.484459 0.000000
v -2.587759 0.321832 0.000000
v -2.626526 0.353409 0.000000
v -2.076526 1.028650 0.000000
v -2.037759 0.997073 0.000000
v -2.025001 -0.273581 0.000000
v -2.074999 -0.273043 0.000000
v -2.060713 1.056003 0.000000
v -2.010716 1.055465 0.000000
v -1.592646 1.556902 0.000000
v -1.578783 1.604942 0.000000
v -0.835926 1.390579 0.000000
v -0.849788 1.342540 0.000000
v -4.074345 -2.203401 0.000000
v -4.097084 -2.158871 0.000000
v -2.732798 -1.462194 0.000000
v -2.710059 -1.506724 0.000000
v -3.756130 -2.784894 0.000000
v -3.758156 -2.734935 0.000000
v -3.229584 -2.713499 0.000000
v -3.227558 -2.763457 0.000000
v 2.198794 0.506982 0.000000
v 2.215492 0.554111 0.000000
v 2.729777 0.371903 0.000000
v 2.713080 0.324774 0.000000
v 2.220829 0.270977 0.000000
v 2.236314 0.318519 0.000000
v 3.157742 0.018412 0.000000
v 3.142258 -0.029130 0.000000
v -2.022609 2.082535 0.000000
v -2.005963 2.129683 0.000000
v -1.155963 1.829576 0.000000
v -1.172609 1.782428 0.000000
v -2.584803 -4.166218 0.000000
v -2.600912 -4.118884 0.000000
v -1.908055 -3.883085 0.000000
v -1.891945 -3.930419 0.000000
v -2.850388 0.634943 0.000000
v -2.892469 0.661948 0.000000
v -2.149612 1.819505 0.000000
v -2.107531 1.792500 0.000000
v -4.275075 -3.157600 0.000000
v -4.253496 -3.112496 0.000000
v -3.267782 -3.584093 0.000000
v -3.289361 -3.629197 0.000000
v -2.046436 -0.252471 0.000000
v -2.096421 -0.251281 0.000000
v -2.074993 0.649041 0.000000
v -2.025007 0.647851 0.000000
v 4.578571 -2.591988 0.000000
v 4.578571 -2.541988 0.000000
v 4.992857 -2.541988 0.000000
v 4.992857 -2.591988 0.000000
v -0.360714 -2.127546 0.000000
v -0.410714 -2.127546 0.000000
v -0.410714 -0.830654 0.000000
v -0.360714 -0.830654 0.000000
v -2.814911 0.591709 0.000000
v -2.856518 0.619437 0.000000
v -2.077946 1.787712 0.000000
v -2.036339 1.759984 0.000000
v -2.534465 -2.699138 0.000000
v -2.536963 -2.649201 0.000000
v -2.108392 -2.627764 0.000000
v -2.105894 -2.677702 0.000000
v 0.104024 2.211930 0.000000
v 0.124548 2.257523 0.000000
v 0.695976 2.000289 0.000000
v 0.675452 1.954695 0.000000
v -2.535089 -2.731316 0.000000
v -2.536339 -2.681332 0.000000
v -2.107768 -2.670613 0.000000
v -2.106518 -2.720598 0.000000
v -2.910721 -2.856956 0.000000
v -2.960708 -2.855799 0.000000
v -2.924993 -1.312391 0.000000
v -2.875007 -1.313547 0.000000
v 2.343367 -2.397862 0.000000
v 2.328062 -2.350262 0.000000
v 2.828062 -2.189491 0.000000
v 2.843367 -2.237090 0.000000
v -3.597802 -2.088140 0.000000
v -3.602198 -2.038334 0.000000
v -2.995055 -1.984743 0.000000
v -2.990659 -2.034549 0.000000
v -3.087209 -3.577408 0.000000
v -3.098505 -3.528701 0.000000
v -2.312791 -3.346493 0.000000
v -2.301495 -3.395200 0.000000
v -2.964491 0.603079 0.000000
v -3.006938 0.629504 0.000000
v -1.892652 2.419429 0.000000
v -1.850205 2.393004 0.000000
v -1.578680 -1.690657 0.000000
v -1.592748 -1.642677 0.000000
v -0.349891 -1.278261 0.000000
v -0.335823 -1.326241 0.000000
v -0.382141 -0.788079 0.000000
v -0.332145 -0.787484 0.000000
v -0.317859 -1.987913 0.000000
v -0.367855 -1.988508 0.000000
v -1.342719 -3.727024 0.000000
v -1.357281 -3.679192 0.000000
v -0.864424 -3.529139 0.000000
v -0.849861 -3.576971 0.000000
v -3.175356 -0.923533 0.000000
v -3.210359 -0.887828 0.000000
v -2.138930 0.162547 0.000000
v -2.103927 0.126842 0.000000
v 2.274157 -3.556469 0.000000
v 2.268700 -3.506768 0.000000
v 2.854414 -3.442459 0.000000
v 2.859871 -3.492160 0.000000
v -2.832433 1.545420 0.000000
v -2.838996 1.594987 0.000000
v -1.867567 1.723605 0.000000
v -1.861004 1.674037 0.000000
v -0.180647 -1.873356 0.000000
v -0.190781 -1.824393 0.000000
v 0.223505 -1.738649 0.000000
v 0.233638 -1.787611 0.000000
v -3.005645 -2.902769 0.000000
v -3.008641 -2.852858 0.000000
v -2.472926 -2.820704 0.000000
v -2.469931 -2.870614 0.000000
v 3.431658 -1.273329 0.000000
v 3.439771 -1.223992 0.000000
v 3.961199 -1.309736 0.000000
v 3.953086 -1.359074 0.000000
v -3.863717 -2.752753 0.000000
v -3.864854 -2.702766 0.000000
v -2.921997 -2.681330 0.000000
v -2.920860 -2.731317 0.000000
v -3.857143 -2.538398 0.000000
v -3.857143 -2.488398 0.000000
v -2.921429 -2.488398 0.000000
v -2.921429 -2.538398 0.000000
v -4.074165 -2.246181 0.000000
v -4.097264 -2.201836 0.000000
v -2.718693 -1.483723 0.000000
v -2.695593 -1.528067 0.000000
v 4.492211 -2.484799 0.000000
v 4.493504 -2.434815 0.000000
v 4.907789 -2.445534 0.000000
v 4.906496 -2.495517 0.000000
v -3.173754 -0.503800 0.000000
v -3.211961 -0.471548 0.000000
v -2.669104 0.171539 0.000000
v -2.630896 0.139286 0.000000
v -2.207778 1.760807 0.000000
v -2.192222 1.808325 0.000000
v -1.799364 1.679708 0.000000
v -1.814921 1.632189 0.000000
v -2.842588 -4.112836 0.000000
v -2.857412 -4.065084 0.000000
v -2.443127 -3.936467 0.000000
v -2.428302 -3.984219 0.000000
v -3.749428 -1.733319 0.000000
v -3.764858 -1.685759 0.000000
v -2.972001 -1.428525 0.000000
v -2.956571 -1.476084 0.000000
v 2.450000 -2.527680 0.000000
v 2.450000 -2.477680 0.000000
v 2.842857 -2.477680 0.000000
v 2.842857 -2.527680 0.000000
v -1.485671 -3.662745 0.000000
v -1.500043 -3.614855 0.000000
v -1.107186 -3.496955 0.000000
v -1.092814 -3.544845 0.000000
v -2.735293 -4.414064 0.000000
v -2.736136 -4.364071 0.000000
v -2.100421 -4.353353 0.000000
v -2.099579 -4.403346 0.000000
v 4.175029 -1.324895 0.000000
v 4.224971 -1.322479 0.000000
v 4.289257 -2.651525 0.000000
v 4.239315 -2.653941 0.000000
v -2.261184 -4.199512 0.000000
v -2.267388 -4.149898 0.000000
v -1.495959 -4.053435 0.000000
v -1.489755 -4.103049 0.000000
v -0.829196 -2.527672 0.000000
v -0.827946 -2.477687 0.000000
v -0.399375 -2.488405 0.000000
v -0.400625 -2.538390 0.000000
v -3.003573 -2.856655 0.000000
v -3.053570 -2.856100 0.000000
v -3.046427 -2.213013 0.000000
v -2.996430 -2.213568 0.000000
v 2.422869 -2.570510 0.000000
v 2.419988 -2.520594 0.000000
v 2.791417 -2.499157 0.000000
v 2.794298 -2.549074 0.000000
v -3.688455 -1.179521 0.000000
v -3.725831 -1.146310 0.000000
v -2.554402 0.172018 0.000000
v -2.517026 0.138807 0.000000
v -3.735089 -1.455450 0.000000
v -3.693482 -1.427722 0.000000
v -2.936339 -2.563842 0.000000
v -2.977946 -2.591570 0.000000
v -2.498849 -4.101826 0.000000
v -2.515437 -4.054658 0.000000
v -2.058294 -3.893887 0.000000
v -2.041706 -3.941055 0.000000
v -0.433684 -0.522864 0.000000
v -0.423458 -0.473921 0.000000
v 0.140827 -0.591820 0.000000
v 0.130601 -0.640763 0.000000
v 2.189292 0.637153 0.000000
v 2.239279 0.638302 0.000000
v 2.267851 -0.604999 0.000000
v 2.217864 -0.606148 0.000000
v -1.649579 -3.598319 0.000000
v -1.664706 -3.550663 0.000000
v -1.293278 -3.432763 0.000000
v -1.278151 -3.480420 0.000000
v -3.899807 -3.362707 0.000000
v -3.885908 -3.314678 0.000000
v -2.885908 -3.604067 0.000000
v -2.899807 -3.652096 0.000000
v 3.791643 0.035388 0.000000
v 3.808357 0.082512 0.000000
v 4.201214 -0.056824 0.000000
v 4.184500 -0.103948 0.000000
v 4.182167 -1.678482 0.000000
v 4.232119 -1.676287 0.000000
v 4.274976 -2.651636 0.000000
v 4.225024 -2.653831 0.000000
v -2.393285 1.696431 0.000000
v -2.378143 1.744083 0.000000
v -1.771000 1.551157 0.000000
v -1.786142 1.503505 0.000000
v -4.275015 -3.135913 0.000000
v -4.324985 -3.134183 0.000000
v -4.267842 -1.483594 0.000000
v -4.217872 -1.485324 0.000000
v 1.275649 1.600910 0.000000
v 1.295779 1.646679 0.000000
v 2.124351 1.282263 0.000000
v 2.104221 1.236494 0.000000
v -0.416742 -3.127773 0.000000
v -0.411830 -3.078015 0.000000
v 0.131027 -3.131605 0.000000
v 0.126115 -3.181364 0.000000
v 2.789298 -1.528109 0.000000
v 2.839274 -1.526553 0.000000
v 2.874988 -2.673391 0.000000
v 2.825012 -2.674948 0.000000
v -4.983806 -2.141754 0.000000
v -4.987623 -2.091900 0.000000
v -4.287623 -2.038310 0.000000
v -4.283806 -2.088164 0.000000
v 2.746076 -3.395639 0.000000
v 2.739638 -3.346055 0.000000
v 3.482495 -3.249592 0.000000
v 3.488934 -3.299176 0.000000
v 2.257795 -0.211710 0.000000
v 2.270776 -0.163424 0.000000
v 3.985062 -0.624303 0.000000
v 3.972081 -0.672589 0.000000
v 0.937029 2.059708 0.000000
v 0.934400 2.109639 0.000000
v 1.341543 2.131075 0.000000
v 1.344172 2.081144 0.000000
v -2.027114 0.602665 0.000000
v -2.015743 0.651355 0.000000
v 0.141399 0.147603 0.000000
v 0.130029 0.098913 0.000000
v 2.443552 -2.506234 0.000000
v 2.442163 -2.456253 0.000000
v 2.827877 -2.445535 0.000000
v 2.829266 -2.495516 0.000000
v 2.421429 -2.581270 0.000000
v 2.421429 -2.531270 0.000000
v 2.828571 -2.531270 0.000000
v 2.828571 -2.581270 0.000000
v 2.350000 -2.602706 0.000000
v 2.350000 -2.552706 0.000000
v 2.828571 -2.552706 0.000000
v 2.828571 -2.602706 0.000000
v 2.975895 -1.627214 0.000000
v 2.981248 -1.577502 0.000000
v 4.474105 -1.738273 0.000000
v 4.468752 -1.787986 0.000000
v -3.175005 0.969513 0.000000
v -3.224995 0.970465 0.000000
v -3.210710 1.720733 0.000000
v -3.160719 1.719781 0.000000
v -3.846753 -2.280951 0.000000
v -3.853247 -2.231375 0.000000
v -2.953247 -2.113475 0.000000
v -2.946753 -2.163052 0.000000
v -3.853578 -3.307125 0.000000
v -3.903565 -3.305952 0.000000
v -3.867850 -1.783979 0.000000
v -3.817864 -1.785152 0.000000
v -0.703571 -1.698821 0.000000
v -0.753571 -1.698821 0.000000
v -0.753571 -1.045016 0.000000
v -0.703571 -1.045016 0.000000
v 2.260719 -0.252345 0.000000
v 2.310710 -0.251406 0.000000
v 2.324996 -1.012393 0.000000
v 2.275004 -1.013331 0.000000
v -3.589292 -2.749761 0.000000
v -3.639279 -2.748632 0.000000
v -3.610708 -1.483894 0.000000
v -3.560721 -1.485023 0.000000
v -4.128497 -3.234055 0.000000
v -4.114360 -3.186095 0.000000
v -3.714360 -3.303994 0.000000
v -3.728497 -3.351954 0.000000
v -3.701155 -3.744206 0.000000
v -3.670273 -3.704883 0.000000
v -2.905988 -4.305097 0.000000
v -2.936869 -4.344420 0.000000
v -0.490726 -3.513239 0.000000
v -0.480703 -3.464253 0.000000
v 0.305012 -3.625025 0.000000
v 0.294988 -3.674010 0.000000
v 2.356346 0.313915 0.000000
v 2.372226 0.361326 0.000000
v 3.172226 0.093373 0.000000
v 3.156346 0.045962 0.000000
v -0.114329 -3.662745 0.000000
v -0.099957 -3.614855 0.000000
v 0.364329 -3.754190 0.000000
v 0.349957 -3.802080 0.000000
v -2.170067 0.881358 0.000000
v -2.158504 0.930003 0.000000
v -1.437076 0.758513 0.000000
v -1.448639 0.709869 0.000000
v -3.117862 -2.867597 0.000000
v -3.167852 -2.866594 0.000000
v -3.132138 -1.087387 0.000000
v -3.082148 -1.088390 0.000000
v -2.217858 -2.127735 0.000000
v -2.267856 -2.127356 0.000000
v -2.260714 -1.184162 0.000000
v -2.210715 -1.184541 0.000000
v -2.182143 -2.856377 0.000000
v -2.232143 -2.856377 0.000000
v -2.232143 -1.516613 0.000000
v -2.182143 -1.516613 0.000000
v -2.578951 1.138709 0.000000
v -2.621049 1.165685 0.000000
v -1.906763 2.280369 0.000000
v -1.864665 2.253393 0.000000
v -3.571897 -2.313313 0.000000
v -3.570960 -2.263322 0.000000
v -2.999531 -2.274040 0.000000
v -3.000469 -2.324031 0.000000
v -3.925008 -2.599763 0.000000
v -3.974992 -2.598522 0.000000
v -3.932135 -0.872906 0.000000
v -3.882151 -0.874147 0.000000
v 2.344086 -2.313287 0.000000
v 2.341629 -2.263347 0.000000
v 2.777343 -2.241911 0.000000
v 2.779800 -2.291851 0.000000
v 2.234651 0.464059 0.000000
v 2.251063 0.511289 0.000000
v 2.929635 0.275491 0.000000
v 2.913223 0.228261 0.000000
v -2.588012 0.235782 0.000000
v -2.626274 0.267969 0.000000
v -2.076274 0.921774 0.000000
v -2.038012 0.889587 0.000000
v -3.764495 -0.661665 0.000000
v -3.806934 -0.635227 0.000000
v -3.192648 0.350839 0.000000
v -3.150209 0.324402 0.000000
v 2.350000 -2.624143 0.000000
v 2.350000 -2.574143 0.000000
v 2.828571 -2.574143 0.000000
v 2.828571 -2.624143 0.000000
v -2.248380 -3.684618 0.000000
v -2.237335 -3.635853 0.000000
v -1.858763 -3.721598 0.000000
v -1.869808 -3.770363 0.000000
v 4.525015 -0.402806 0.000000
v 4.574985 -0.401053 0.000000
v 4.610699 -1.419274 0.000000
v 4.560730 -1.421026 0.000000
v -0.390041 1.637713 0.000000
v -0.424245 1.674184 0.000000
v 0.261470 2.317271 0.000000
v 0.295673 2.280800 0.000000
v 3.688608 -1.262578 0.000000
v 3.697106 -1.213306 0.000000
v 4.318535 -1.320487 0.000000
v 4.310037 -1.369760 0.000000
v -1.502290 -4.295693 0.000000
v -1.511996 -4.246644 0.000000
v -0.861996 -4.118026 0.000000
v -0.852290 -4.167075 0.000000
v 2.289310 -1.507005 0.000000
v 2.339261 -1.504785 0.000000
v 2.374975 -2.308644 0.000000
v 2.325025 -2.310863 0.000000
v -0.326790 2.102609 0.000000
v -0.330353 2.152482 0.000000
v 0.269647 2.195354 0.000000
v 0.273210 2.145482 0.000000
v -3.569520 -3.653009 0.000000
v -3.573337 -3.603154 0.000000
v -2.873337 -3.549564 0.000000
v -2.869520 -3.599418 0.000000
v -2.705780 1.656392 0.000000
v -2.751362 1.676941 0.000000
v -2.422791 2.405773 0.000000
v -2.377209 2.385224 0.000000
v -3.598646 -1.830965 0.000000
v -3.601354 -1.781039 0.000000
v -3.008497 -1.748884 0.000000
v -3.005789 -1.798811 0.000000
v -1.332144 -2.599334 0.000000
v -1.382142 -2.598951 0.000000
v -1.374999 -1.666475 0.000000
v -1.325001 -1.666858 0.000000
v -2.243320 -2.784910 0.000000
v -2.242394 -2.734919 0.000000
v -1.663823 -2.745637 0.000000
v -1.664749 -2.795628 0.000000
v 2.717872 -1.195920 0.000000
v 2.767843 -1.194219 0.000000
v 2.817843 -2.662600 0.000000
v 2.767872 -2.664302 0.000000
v -3.573149 -2.216795 0.000000
v -3.569708 -2.166914 0.000000
v -2.948279 -2.209786 0.000000
v -2.951721 -2.259667 0.000000
v -0.900605 -1.551461 0.000000
v -0.913680 -1.503201 0.000000
v -0.399395 -1.363866 0.000000
v -0.386320 -1.412126 0.000000
v -3.289292 -2.749747 0.000000
v -3.339280 -2.748646 0.000000
v -3.310708 -1.451754 0.000000
v -3.260720 -1.452855 0.000000
v -0.409956 -3.106299 0.000000
v -0.404330 -3.056616 0.000000
v -0.025758 -3.099489 0.000000
v -0.031385 -3.149171 0.000000
v 2.251473 -0.308379 0.000000
v 2.262812 -0.259681 0.000000
v 2.677098 -0.356144 0.000000
v 2.665759 -0.404842 0.000000
v -1.057730 1.385657 0.000000
v -1.042270 1.433207 0.000000
v -0.613699 1.293872 0.000000
v -0.629158 1.246321 0.000000
v -1.639287 -4.314301 0.000000
v -1.689284 -4.313780 0.000000
v -1.674999 -2.941862 0.000000
v -1.625001 -2.942382 0.000000
v -3.210458 -0.815730 0.000000
v -3.246685 -0.781269 0.000000
v -2.053828 0.472750 0.000000
v -2.017600 0.438289 0.000000
v -0.039935 2.081281 0.000000
v -0.045779 2.130938 0.000000
v 0.318507 2.173810 0.000000
v 0.324351 2.124153 0.000000
v -1.256643 -2.613419 0.000000
v -1.257643 -2.563429 0.000000
v -0.721929 -2.552711 0.000000
v -0.720928 -2.602701 0.000000
v -3.571865 -2.291877 0.000000
v -3.570992 -2.241885 0.000000
v -2.956707 -2.252603 0.000000
v -2.957579 -2.302595 0.000000
v 0.017858 0.391052 0.000000
v 0.067857 0.391370 0.000000
v 0.074999 -0.734032 0.000000
v 0.025001 -0.734349 0.000000
v -0.227957 2.038244 0.000000
v -0.229186 2.088229 0.000000
v 0.206528 2.098947 0.000000
v 0.207758 2.048963 0.000000
v 4.484612 -2.527655 0.000000
v 4.486817 -2.477704 0.000000
v 4.972531 -2.499140 0.000000
v 4.970326 -2.549091 0.000000
v 4.450494 -1.530890 0.000000
v 4.449506 -1.480900 0.000000
v 4.992364 -1.470182 0.000000
v 4.993351 -1.520172 0.000000
v -4.098876 -1.820259 0.000000
v -4.101124 -1.770309 0.000000
v -3.386839 -1.738155 0.000000
v -3.384590 -1.788104 0.000000
v -0.717857 -2.759914 0.000000
v -0.767857 -2.759914 0.000000
v -0.767857 -1.559486 0.000000
v -0.717857 -1.559486 0.000000
v -1.656016 0.752798 0.000000
v -1.643984 0.801329 0.000000
v -0.822556 0.597685 0.000000
v -0.834587 0.549154 0.000000
v -3.782148 -2.749722 0.000000
v -3.832137 -2.748670 0.000000
v -3.810709 -1.730449 0.000000
v -3.760720 -1.731501 0.000000
v -2.089264 -4.392372 0.000000
v -2.096450 -4.342891 0.000000
v -1.432164 -4.246428 0.000000
v -1.424979 -4.295909 0.000000
v -4.620858 -2.321629 0.000000
v -4.664857 -2.297878 0.000000
v -4.086285 -1.226067 0.000000
v -4.042286 -1.249818 0.000000
v -1.607004 -3.662716 0.000000
v -1.621567 -3.614883 0.000000
v -1.128710 -3.464830 0.000000
v -1.114147 -3.512662 0.000000
v -1.114101 -1.701287 0.000000
v -1.128756 -1.653483 0.000000
v -0.464470 -1.449839 0.000000
v -0.449815 -1.497643 0.000000
v -1.626581 -3.406028 0.000000
v -1.616277 -3.357101 0.000000
v -0.801991 -3.528591 0.000000
v -0.812295 -3.577518 0.000000
v 2.383050 -1.595061 0.000000
v 2.388379 -1.545346 0.000000
v 2.788379 -1.588218 0.000000
v 2.783050 -1.637934 0.000000
v 2.256755 -0.554385 0.000000
v 2.271816 -0.506708 0.000000
v 2.678959 -0.635325 0.000000
v 2.663898 -0.683003 0.000000
v -2.741470 1.559984 0.000000
v -2.787101 1.580423 0.000000
v -2.494244 2.234228 0.000000
v -2.448613 2.213789 0.000000
v -2.450218 1.364045 0.000000
v -2.492639 1.390511 0.000000
v -1.864068 2.398013 0.000000
v -1.821647 2.371547 0.000000
v -2.767649 -3.822257 0.000000
v -2.746637 -3.776886 0.000000
v -2.168065 -4.044839 0.000000
v -2.189078 -4.090209 0.000000
v -3.664510 -1.669254 0.000000
v -3.678347 -1.621207 0.000000
v -2.971204 -1.417563 0.000000
v -2.957367 -1.465610 0.000000
v -1.510522 -3.534953 0.000000
v -1.503764 -3.485412 0.000000
v -1.032335 -3.549720 0.000000
v -1.039093 -3.599261 0.000000
v -3.560262 -1.457036 0.000000
v -3.511166 -1.447572 0.000000
v -3.261166 -2.744464 0.000000
v -3.310262 -2.753928 0.000000
v -2.591486 -4.166057 0.000000
v -2.608514 -4.119045 0.000000
v -1.987085 -3.893965 0.000000
v -1.970058 -3.940976 0.000000
v -3.243412 -3.501813 0.000000
v -3.228016 -3.454243 0.000000
v -2.863731 -3.572142 0.000000
v -2.879127 -3.619712 0.000000
v -4.996290 -3.084745 0.000000
v -5.003710 -3.035298 0.000000
v -4.289424 -2.928117 0.000000
v -4.282004 -2.977564 0.000000
v 1.974582 -3.610009 0.000000
v 1.968275 -3.560409 0.000000
v 2.389703 -3.506818 0.000000
v 2.396011 -3.556419 0.000000
v -3.571865 -2.259723 0.000000
v -3.570992 -2.209730 0.000000
v -2.956707 -2.220449 0.000000
v -2.957579 -2.270441 0.000000
v -1.017047 -3.620540 0.000000
v -1.025810 -3.571314 0.000000
v -0.604382 -3.496287 0.000000
v -0.595618 -3.545513 0.000000
v -2.670143 -4.176806 0.000000
v -2.686999 -4.129732 0.000000
v -2.058428 -3.904652 0.000000
v -2.041572 -3.951725 0.000000
v -3.389294 -2.846296 0.000000
v -3.439278 -2.845023 0.000000
v -3.396420 -1.162279 0.000000
v -3.346437 -1.163552 0.000000
v -3.163025 -3.917373 0.000000
v -3.136975 -3.874695 0.000000
v -2.715546 -4.131930 0.000000
v -2.741596 -4.174608 0.000000
v 3.962915 -0.232509 0.000000
v 3.979942 -0.185498 0.000000
v 4.394228 -0.335551 0.000000
v 4.377201 -0.382562 0.000000
v -1.655873 -1.670198 0.000000
v -1.658413 -1.620263 0.000000
v -1.236984 -1.598826 0.000000
v -1.234444 -1.648762 0.000000
v -3.609175 -2.195335 0.000000
v -3.605111 -2.145501 0.000000
v -2.947968 -2.199091 0.000000
v -2.952032 -2.248926 0.000000
v 4.578571 -2.559834 0.000000
v 4.578571 -2.509834 0.000000
v 4.971429 -2.509834 0.000000
v 4.971429 -2.559834 0.000000
v -2.332064 1.620498 0.000000
v -2.339365 1.669963 0.000000
v -1.903650 1.734271 0.000000
v -1.896350 1.684807 0.000000
v -2.921642 -1.196866 0.000000
v -2.878358 -1.171837 0.000000
v -2.456929 -1.900669 0.000000
v -2.500214 -1.925697 0.000000
v -3.436030 1.171020 0.000000
v -3.449684 1.219119 0.000000
v -2.656827 1.444200 0.000000
v -2.643173 1.396100 0.000000
v -2.935148 0.786615 0.000000
v -2.979137 0.810384 0.000000
v -2.550566 1.603525 0.000000
v -2.506577 1.579755 0.000000
v -2.917875 0.465281 0.000000
v -2.967839 0.467195 0.000000
v -2.932125 1.399671 0.000000
v -2.882161 1.397757 0.000000
v 2.197796 0.603823 0.000000
v 2.216490 0.650196 0.000000
v 2.695062 0.457270 0.000000
v 2.676367 0.410897 0.000000
v -3.763037 -1.938152 0.000000
v -3.765535 -1.888214 0.000000
v -2.908392 -1.845342 0.000000
v -2.905894 -1.895280 0.000000
v -4.067548 -0.651796 0.000000
v -4.061023 -0.602223 0.000000
v -3.653880 -0.655814 0.000000
v -3.660405 -0.705386 0.000000
v -1.889288 -1.613390 0.000000
v -1.939284 -1.612762 0.000000
v -1.932141 -1.044702 0.000000
v -1.882145 -1.045330 0.000000
v -2.152760 -3.715345 0.000000
v -2.132954 -3.669435 0.000000
v -1.561526 -3.915952 0.000000
v -1.581331 -3.961862 0.000000
v -2.542748 -2.719596 0.000000
v -2.528680 -2.671616 0.000000
v -1.907252 -2.853823 0.000000
v -1.921320 -2.901804 0.000000
v -2.003214 -4.177958 0.000000
v -2.011072 -4.128580 0.000000
v -1.539644 -4.053553 0.000000
v -1.531785 -4.102932 0.000000
v -3.396437 -2.674830 0.000000
v -3.446420 -2.673508 0.000000
v -3.410706 -1.323026 0.000000
v -3.360723 -1.324348 0.000000
v -0.439799 1.648662 0.000000
v -0.474487 1.684672 0.000000
v 0.104084 2.242013 0.000000
v 0.138773 2.206004 0.000000
v -2.264577 -3.844877 0.000000
v -2.249709 -3.797138 0.000000
v -1.871138 -3.915038 0.000000
v -1.886005 -3.962776 0.000000
v -2.835671 -4.123623 0.000000
v -2.850043 -4.075734 0.000000
v -2.492900 -3.968552 0.000000
v -2.478528 -4.016442 0.000000
v -3.490400 -1.342253 0.000000
v -3.523885 -1.305121 0.000000
v -2.073885 0.002489 0.000000
v -2.040400 -0.034643 0.000000
v -2.529196 1.127615 0.000000
v -2.570804 1.155343 0.000000
v -1.749375 2.387926 0.000000
v -1.707768 2.360198 0.000000
v -4.684717 -2.052259 0.000000
v -4.658141 -2.009906 0.000000
v -4.265283 -2.256423 0.000000
v -4.291859 -2.298775 0.000000
v -2.042513 1.984649 0.000000
v -2.043201 2.034644 0.000000
v -1.264630 2.045362 0.000000
v -1.263942 1.995367 0.000000
v -2.471429 -2.881377 0.000000
v -2.471429 -2.831377 0.000000
v -2.064286 -2.831377 0.000000
v -2.064286 -2.881377 0.000000
v -3.467863 -2.728293 0.000000
v -3.517851 -2.727227 0.000000
v -3.489280 -1.387463 0.000000
v -3.439291 -1.388529 0.000000
v -3.779764 -3.690586 0.000000
v -3.748807 -3.651322 0.000000
v -3.327379 -3.983583 0.000000
v -3.358335 -4.022848 0.000000
v -3.103578 -2.867674 0.000000
v -3.153565 -2.866517 0.000000
v -3.117850 -1.323109 0.000000
v -3.067864 -1.324265 0.000000
v 1.214286 1.716693 0.000000
v 1.214286 1.766693 0.000000
v 1.592857 1.766693 0.000000
v 1.592857 1.716693 0.000000
v -3.059771 -0.321945 0.000000
v -3.097372 -0.288988 0.000000
v -2.233086 0.697079 0.000000
v -2.195485 0.664122 0.000000
v -0.511203 1.616530 0.000000
v -0.545940 1.652494 0.000000
v 0.075489 2.252709 0.000000
v 0.110225 2.216745 0.000000
v -3.267862 -2.749668 0.000000
v -3.317853 -2.748725 0.000000
v -3.296424 -1.612605 0.000000
v -3.246433 -1.613548 0.000000
v 4.217898 -1.657379 0.000000
v 4.267816 -1.654518 0.000000
v 4.324959 -2.651302 0.000000
v 4.275041 -2.654164 0.000000
v -2.718355 -4.178079 0.000000
v -2.724503 -4.128459 0.000000
v -1.945931 -4.031996 0.000000
v -1.939783 -4.081616 0.000000
v 3.674175 -1.251834 0.000000
v 3.682968 -1.202614 0.000000
v 4.582968 -1.363385 0.000000
v 4.574175 -1.412606 0.000000
v 2.259824 -0.887407 0.000000
v 2.268747 -0.838210 0.000000
v 2.918747 -0.956109 0.000000
v 2.909824 -1.005306 0.000000
v -3.601701 -1.863099 0.000000
v -3.598299 -1.813214 0.000000
v -3.126870 -1.845369 0.000000
v -3.130273 -1.895253 0.000000
v -2.309804 -3.618925 0.000000
v -2.290196 -3.572930 0.000000
v -1.661625 -3.840882 0.000000
v -1.681232 -3.886878 0.000000
v -0.762428 0.098823 0.000000
v -0.751858 0.147693 0.000000
v 0.040999 -0.023797 0.000000
v 0.030429 -0.072666 0.000000
v -0.300291 1.214073 0.000000
v -0.285423 1.261811 0.000000
v 0.093148 1.143912 0.000000
v 0.078281 1.096174 0.000000
v -4.278089 -3.159145 0.000000
v -4.264768 -3.110952 0.000000
v -3.721911 -3.261005 0.000000
v -3.735232 -3.309198 0.000000
v 1.050000 1.791720 0.000000
v 1.050000 1.841720 0.000000
v 1.450000 1.841720 0.000000
v 1.450000 1.791720 0.000000
v -2.533844 -2.784844 0.000000
v -2.537585 -2.734984 0.000000
v -2.109013 -2.702830 0.000000
v -2.105272 -2.752690 0.000000
v -3.489288 -2.395819 0.000000
v -3.539284 -2.395178 0.000000
v -3.524998 -1.280494 0.000000
v -3.475002 -1.281135 0.000000
v -2.510721 -2.481828 0.000000
v -2.560707 -2.480659 0.000000
v -2.546422 -1.869726 0.000000
v -2.496435 -1.870895 0.000000
v -2.914478 0.742436 0.000000
v -2.956951 0.768818 0.000000
v -2.271237 1.872784 0.000000
v -2.228763 1.846402 0.000000
v -3.741472 -0.840877 0.000000
v -3.787100 -0.820430 0.000000
v -3.508528 -0.198780 0.000000
v -3.462900 -0.219227 0.000000
v 3.932181 -1.346498 0.000000
v 3.982105 -1.343748 0.000000
v 4.053534 -2.640640 0.000000
v 4.003609 -2.643390 0.000000
v -2.618134 -2.870441 0.000000
v -2.624724 -2.820877 0.000000
v -2.060438 -2.745850 0.000000
v -2.053848 -2.795414 0.000000
v -0.375000 -2.770632 0.000000
v -0.425000 -2.770632 0.000000
v -0.425000 -1.934620 0.000000
v -0.375000 -1.934620 0.000000
v -2.522808 -3.963233 0.000000
v -2.534335 -3.914580 0.000000
v -1.855764 -3.753809 0.000000
v -1.844236 -3.802462 0.000000
v -3.461844 -1.277958 0.000000
v -3.495299 -1.240799 0.000000
v -2.138156 -0.018934 0.000000
v -2.104701 -0.056093 0.000000
v -3.695183 1.289831 0.000000
v -3.676246 1.336106 0.000000
v -3.204817 1.143180 0.000000
v -3.223754 1.096905 0.000000
v -2.470693 -2.720595 0.000000
v -2.472164 -2.670616 0.000000
v -2.107878 -2.659898 0.000000
v -2.106408 -2.709877 0.000000
v 1.758229 1.555945 0.000000
v 1.756057 1.605898 0.000000
v 2.248914 1.627334 0.000000
v 2.251086 1.577382 0.000000
v -3.438581 1.030899 0.000000
v -3.432848 1.080569 0.000000
v -2.689991 0.994824 0.000000
v -2.695724 0.945154 0.000000
v 3.929315 -0.672613 0.000000
v 3.942114 -0.624279 0.000000
v 4.549257 -0.785051 0.000000
v 4.536458 -0.833385 0.000000
v -2.395438 0.439095 0.000000
v -2.433133 0.471945 0.000000
v -2.068847 0.889951 0.000000
v -2.031153 0.857101 0.000000
v -3.169103 -1.764831 0.000000
v -3.188040 -1.718556 0.000000
v -2.559469 -1.461321 0.000000
v -2.540531 -1.507596 0.000000
v -3.560593 -2.385874 0.000000
v -3.582264 -2.340814 0.000000
v -3.025121 -2.072861 0.000000
v -3.003450 -2.117921 0.000000
v -4.021305 -3.287660 0.000000
v -4.007266 -3.239671 0.000000
v -2.871552 -3.571933 0.000000
v -2.885591 -3.619921 0.000000
v -4.172697 -3.115718 0.000000
v -4.155875 -3.068633 0.000000
v -3.705875 -3.229405 0.000000
v -3.722697 -3.276490 0.000000
v -4.355998 -1.891774 0.000000
v -4.401144 -1.870284 0.000000
v -4.079716 -1.195043 0.000000
v -4.034570 -1.216533 0.000000
v -3.487164 1.536008 0.000000
v -3.469979 1.582963 0.000000
v -2.591408 1.261419 0.000000
v -2.608592 1.214465 0.000000
v -3.155536 -3.939017 0.000000
v -3.130178 -3.895924 0.000000
v -2.765893 -4.110286 0.000000
v -2.791250 -4.153379 0.000000
v -0.699306 1.673831 0.000000
v -0.700694 1.723811 0.000000
v -0.314980 1.734529 0.000000
v -0.313591 1.684549 0.000000
v 2.232152 -0.209688 0.000000
v 2.282133 -0.208319 0.000000
v 2.303562 -0.990741 0.000000
v 2.253581 -0.992110 0.000000
v -1.039286 -2.577706 0.000000
v -1.089286 -2.577706 0.000000
v -1.089286 -1.570204 0.000000
v -1.039286 -1.570204 0.000000
v -3.636020 -1.637123 0.000000
v -3.649694 -1.589029 0.000000
v -2.971123 -1.396103 0.000000
v -2.957449 -1.444197 0.000000
v -2.150405 1.738884 0.000000
v -2.192452 1.765939 0.000000
v -1.792452 2.387590 0.000000
v -1.750405 2.360534 0.000000
g shell
f 1 3 2
f 1 4 3
f 5 6 7
f 5 7 8
f 1 2 6
f 1 6 5
f 4 7 3
f 4 8 7
f 1 5 8
f 1 8 4
f 2 3 7
f 2 7 6
g beams
f 9 10 11
f 9 11 12
f 13 14 15
f 13 15 16
f 17 18 19
f 17 19 20
f 21 22 23
f 21 23 24
f 25 26 27
f 25 27 28
f 29 30 31
f 29 31 32
f 33 34 35
f 33 35 36
f 37 38 39
f 37 39 40
f 41 42 43
f 41 43 44
f 45 46 47
f 45 47 48
f 49 50 51
f 49 51 52
f 53 54 55
f 53 55 56
f 57 58 59
f 57 59 60
f 61 62 63
f 61 63 64
f 65 66 67
f 65 67 68
f 69 70 71
f 69 71 72
f 73 74 75
f 73 75 76
f 77 78 79
f 77 79 80
f 81 82 83
f 81 83 84
f 85 86 87
f 85 87 88
f 89 90 91
f 89 91 92
f 93 94 95
f 93 95 96
f 97 98 99
f 97 99 100
f 101 102 103
f 101 103 104
f 105 106 107
f 105 107 108
f 109 110 111
f 109 111 112
f 113 114 115
f 113 115 116
f 117 118 119
f 117 119 120
f 121 122 123
f 121 123 124
f 125 126 127
f 125 127 128
f 129 130 131
f 129 131 132
f 133 134 135
f 133 135 136
f 137 138 139
f 137 139 140
f 141 142 143
f 141 143 144
f 145 146 147
f 145 147 148
f 149 150 151
f 149 151 152
f 153 154 155
f 153 155 156
f 157 158 159
f 157 159 160
f 161 162 163
f 161 163 164
f 165 166 167
f 165 167 168
f 169 170 171
f 169 171 172
f 173 174 175
f 173 175 176
f 177 178 179
f 177 179 180
f 181 182 183
f 181 183 184
f 185 186 187
f 185 187 188
f 189 190 191
f 189 191 192
f 193 194 195
f 193 195 196
f 197 198 199
f 197 199 200
f 201 202 203
f 201 203 204
f 205 206 207
f 205 207 208
f 209 210 211
f 209 211 212
f 213 214 215
f 213 215 216
f 217 218 219
f 217 219 220
f 221 222 223
f 221 223 224
f 225 226 227
f 225 227 228
f 229 230 231
f 229 231 232
f 233 234 235
f 233 235 236
f 237 238 239
f 237 239 240
f 241 242 243
f 241 243 244
f 245 246 247
f 245 247 248
f 249 250 251
f 249 251 252
f 253 254 255
f 253 255 256
f 257 258 259
f 257 259 260
f 261 262 263
f 261 263 264
f 265 266 267
f 265 267 268
f 269 270 271
f 269 271 272
f 273 274 275
f 273 275 276
f 277 278 279
f 277 279 280
f 281 282 283
f 281 283 284
f 285 286 287
f 285 287 288
f 289 290 291
f 289 291 292
f 293 294 295
f 293 295 296
f 297 298 299
f 297 299 300
f 301 302 303
f 301 303 304
f 305 306 307
f 305 307 308
f 309 310 311
f 309 311 312
f 313 314 315
f 313 315 316
f 317 318 319
f 317 319 320
f 321 322 323
f 321 323 324
f 325 326 327
f 325 327 328
f 329 330 331
f 329 331 332
f 333 334 335
f 333 335 336
f 337 338 339
f 337 339 340
f 341 342 343
f 341 343 344
f 345 346 347
f 345 347 348
f 349 350 351
f 349 351 352
f 353 354 355
f 353 355 356
f 357 358 359
f 357 359 360
f 361 362 363
f 361 363 364
f 365 366 367
f 365 367 368
f 369 370 371
f 369 371 372
f 373 374 375
f 373 375 376
f 377 378 379
f 377 379 380
f 381 382 383
f 381 383 384
f 385 386 387
f 385 387 388
f 389 390 391
f 389 391 392
f 393 394 395
f 393 395 396
f 397 398 399
f 397 399 400
f 401 402 403
f 401 403 404
f 405 406 407
f 405 407 408
f 409 410 411
f 409 411 412
f 413 414 415
f 413 415 416
f 417 418 419
f 417 419 420
f 421 422 423
f 421 423 424
f 425 426 427
f 425 427 428
f 429 430 431
f 429 431 432
f 433 434 435
f 433 435 436
f 437 438 439
f 437 439 440
f 441 442 443
f 441 443 444
f 445 446 447
f 445 447 448
f 449 450 451
f 449 451 452
f 453 454 455
f 453 455 456
f 457 458 459
f 457 459 460
f 461 462 463
f 461 463 464
f 465 466 467
f 465 467 468
f 469 470 471
f 469 471 472
f 473 474 475
f 473 475 476
f 477 478 479
f 477 479 480
f 481 482 483
f 481 483 484
f 485 486 487
f 485 487 488
f 489 490 491
f 489 491 492
f 493 494 495
f 493 495 496
f 497 498 499
f 497 499 500
f 501 502 503
f 501 503 504
f 505 506 507
f 505 507 508
f 509 510 511
f 509 511 512
f 513 514 515
f 513 515 516
f 517 518 519
f 517 519 520
f 521 522 523
f 521 523 524
f 525 526 527
f 525 527 528
f 529 530 531
f 529 531 532
f 533 534 535
f 533 535 536
f 537 538 539
f 537 539 540
f 541 542 543
f 541 543 544
f 545 546 547
f 545 547 548
f 549 550 551
f 549 551 552
f 553 554 555
f 553 555 556
f 557 558 559
f 557 559 560
f 561 562 563
f 561 563 564
f 565 566 567
f 565 567 568
f 569 570 571
f 569 571 572
f 573 574 575
f 573 575 576
f 577 578 579
f 577 579 580
f 581 582 583
f 581 583 584
f 585 586 587
f 585 587 588
f 589 590 591
f 589 591 592
f 593 594 595
f 593 595 596
f 597 598 599
f 597 599 600
f 601 602 603
f 601 603 604
f 605 606 607
f 605 607 608
f 609 610 611
f 609 611 612
f 613 614 615
f 613 615 616
f 617 618 619
f 617 619 620
f 621 622 623
f 621 623 624
f 625 626 627
f 625 627 628
f 629 630 631
f 629 631 632
f 633 634 635
f 633 635 636
f 637 638 639
f 637 639 640
f 641 642 643
f 641 643 644
f 645 646 647
f 645 647 648
f 649 650 651
f 649 651 652
f 653 654 655
f 653 655 656
f 657 658 659
f 657 659 660
f 661 662 663
f 661 663 664
f 665 666 667
f 665 667 668
f 669 670 671
f 669 671 672
f 673 674 675
f 673 675 676
f 677 678 679
f 677 679 680
f 681 682 683
f 681 683 684
f 685 686 687
f 685 687 688
f 689 690 691
f 689 691 692
f 693 694 695
f 693 695 696
f 697 698 699
f 697 699 700
f 701 702 703
f 701 703 704
f 705 706 707
f 705 707 708
f 709 710 711
f 709 711 712
f 713 714 715
f 713 715 716
f 717 718 719
f 717 719 720
f 721 722 723
f 721 723 724
f 725 726 727
f 725 727 728
f 729 730 731
f 729 731 732
f 733 734 735
f 733 735 736
f 737 738 739
f 737 739 740
f 741 742 743
f 741 743 744
f 745 746 747
f 745 747 748
f 749 750 751
f 749 751 752
f 753 754 755
f 753 755 756
f 757 758 759
f 757 759 760
f 761 762 763
f 761 763 764
f 765 766 767
f 765 767 768
f 769 770 771
f 769 771 772
f 773 774 775
f 773 775 776
f 777 778 779
f 777 779 780
f 781 782 783
f 781 783 784
f 785 786 787
f 785 787 788
f 789 790 791
f 789 791 792
f 793 794 795
f 793 795 796
f 797 798 799
f 797 799 800
f 801 802 803
f 801 803 804
f 805 806 807
f 805 807 808
f 809 810 811
f 809 811 812
f 813 814 815
f 813 815 816
f 817 818 819
f 817 819 820
f 821 822 823
f 821 823 824
f 825 826 827
f 825 827 828
f 829 830 831
f 829 831 832
f 833 834 835
f 833 835 836
f 837 838 839
f 837 839 840
f 841 842 843
f 841 843 844
f 845 846 847
f 845 847 848
f 849 850 851
f 849 851 852
f 853 854 855
f 853 855 856
f 857 858 859
f 857 859 860
f 861 862 863
f 861 863 864
f 865 866 867
f 865 867 868
f 869 870 871
f 869 871 872
f 873 874 875
f 873 875 876
f 877 878 879
f 877 879 880
f 881 882 883
f 881 883 884
f 885 886 887
f 885 887 888
f 889 890 891
f 889 891 892
f 893 894 895
f 893 895 896
f 897 898 899
f 897 899 900
f 901 902 903
f 901 903 904
f 905 906 907
f 905 907 908
f 909 910 911
f 909 911 912
f 913 914 915
f 913 915 916
f 917 918 919
f 917 919 920
f 921 922 923
f 921 923 924
f 925 926 927
f 925 927 928
f 929 930 931
f 929 931 932
f 933 934 935
f 933 935 936
f 937 938 939
f 937 939 940
f 941 942 943
f 941 943 944
f 945 946 947
f 945 947 948
f 949 950 951
f 949 951 952
f 953 954 955
f 953 955 956
f 957 958 959
f 957 959 960
f 961 962 963
f 961 963 964
f 965 966 967
f 965 967 968
f 969 970 971
f 969 971 972
f 973 974 975
f 973 975 976
f 977 978 979
f 977 979 980
f 981 982 983
f 981 983 984
f 985 986 987
f 985 987 988
f 989 990 991
f 989 991 992
f 993 994 995
f 993 995 996
f 997 998 999
f 997 999 1000
f 1001 1002 1003
f 1001 1003 1004
f 1005 1006 1007
f 1005 1007 1008
f 1009 1010 1011
f 1009 1011 1012
f 1013 1014 1015
f 1013 1015 1016
f 1017 1018 1019
f 1017 1019 1020
f 1021 1022 1023
f 1021 1023 1024
f 1025 1026 1027
f 1025 1027 1028
f 1029 1030 1031
f 1029 1031 1032
f 1033 1034 1035
f 1033 1035 1036
f 1037 1038 1039
f 1037 1039 1040
f 1041 1042 1043
f 1041 1043 1044
f 1045 1046 1047
f 1045 1047 1048
f 1049 1050 1051
f 1049 1051 1052
f 1053 1054 1055
f 1053 1055 1056
f 1057 1058 1059
f 1057 1059 1060
f 1061 1062 1063
f 1061 1063 1064
f 1065 1066 1067
f 1065 1067 1068
f 1069 1070 1071
f 1069 1071 1072
f 1073 1074 1075
f 1073 1075 1076
f 1077 1078 1079
f 1077 1079 1080
f 1081 1082 1083
f 1081 1083 1084
f 1085 1086 1087
f 1085 1087 1088
f 1089 1090 1091
f 1089 1091 1092
f 1093 1094 1095
f 1093 1095 1096
f 1097 1098 1099
f 1097 1099 1100
f 1101 1102 1103
f 1101 1103 1104
f 1105 1106 1107
f 1105 1107 1108
f 1109 1110 1111
f 1109 1111 1112
f 1113 1114 1115
f 1113 1115 1116
f 1117 1118 1119
f 1117 1119 1120
f 1121 1122 1123
f 1121 1123 1124
f 1125 1126 1127
f 1125 1127 1128
f 1129 1130 1131
f 1129 1131 1132
f 1133 1134 1135
f 1133 1135 1136
f 1137 1138 1139
f 1137 1139 1140
f 1141 1142 1143
f 1141 1143 1144
f 1145 1146 1147
f 1145 1147 1148
f 1149 1150 1151
f 1149 1151 1152
f 1153 1154 1155
f 1153 1155 1156
f 1157 1158 1159
f 1157 1159 1160
f 1161 1162 1163
f 1161 1163 1164
f 1165 1166 1167
f 1165 1167 1168
f 1169 1170 1171
f 1169 1171 1172
f 1173 1174 1175
f 1173 1175 1176
f 1177 1178 1179
f 1177 1179 1180
f 1181 1182 1183
f 1181 1183 1184
f 1185 1186 1187
f 1185 1187 1188
f 1189 1190 1191
f 1189 1191 1192
f 1193 1194 1195
f 1193 1195 1196
f 1197 1198 1199
f 1197 1199 1200
f 1201 1202 1203
f 1201 1203 1204
f 1205 1206 1207
f 1205 1207 1208
f 1209 1210 1211
f 1209 1211 1212
f 1213 1214 1215
f 1213 1215 1216
f 1217 1218 1219
f 1217 1219 1220
f 1221 1222 1223
f 1221 1223 1224
f 1225 1226 1227
f 1225 1227 1228
f 1229 1230 1231
f 1229 1231 1232
f 1233 1234 1235
f 1233 1235 1236
f 1237 1238 1239
f 1237 1239 1240
f 1241 1242 1243
f 1241 1243 1244
f 1245 1246 1247
f 1245 1247 1248
f 1249 1250 1251
f 1249 1251 1252
f 1253 1254 1255
f 1253 1255 1256
f 1257 1258 1259
f 1257 1259 1260
f 1261 1262 1263
f 1261 1263 1264
f 1265 1266 1267
f 1265 1267 1268
f 1269 1270 1271
f 1269 1271 1272
f 1273 1274 1275
f 1273 1275 1276
f 1277 1278 1279
f 1277 1279 1280
f 1281 1282 1283
f 1281 1283 1284
f 1285 1286 1287
f 1285 1287 1288
f 1289 1290 1291
f 1289 1291 1292
f 1293 1294 1295
f 1293 1295 1296
f 1297 1298 1299
f 1297 1299 1300
f 1301 1302 1303
f 1301 1303 1304
f 1305 1306 1307
f 1305 1307 1308
f 1309 1310 1311
f 1309 1311 1312
f 1313 1314 1315
f 1313 1315 1316
f 1317 1318 1319
f 1317 1319 1320
f 1321 1322 1323
f 1321 1323 1324
f 1325 1326 1327
f 1325 1327 1328
f 1329 1330 1331
f 1329 1331 1332
f 1333 1334 1335
f 1333 1335 1336
f 1337 1338 1339
f 1337 1339 1340
f 1341 1342 1343
f 1341 1343 1344
f 1345 1346 1347
f 1345 1347 1348
f 1349 1350 1351
f 1349 1351 1352
f 1353 1354 1355
f 1353 1355 1356
f 1357 1358 1359
f 1357 1359 1360
f 1361 1362 1363
f 1361 1363 1364
f 1365 1366 1367
f 1365 1367 1368
f 1369 1370 1371
f 1369 1371 1372
f 1373 1374 1375
f 1373 1375 1376
f 1377 1378 1379
f 1377 1379 1380
f 1381 1382 1383
f 1381 1383 1384
f 1385 1386 1387
f 1385 1387 1388
f 1389 1390 1391
f 1389 1391 1392
f 1393 1394 1395
f 1393 1395 1396
f 1397 1398 1399
f 1397 1399 1400
f 1401 1402 1403
f 1401 1403 1404
f 1405 1406 1407
f 1405 1407 1408
f 1409 1410 1411
f 1409 1411 1412
f 1413 1414 1415
f 1413 1415 1416
f 1417 1418 1419
f 1417 1419 1420
f 1421 1422 1423
f 1421 1423 1424
f 1425 1426 1427
f 1425 1427 1428
f 1429 1430 1431
f 1429 1431 1432
f 1433 1434 1435
f 1433 1435 1436
f 1437 1438 1439
f 1437 1439 1440
f 1441 1442 1443
f 1441 1443 1444
f 1445 1446 1447
f 1445 1447 1448
f 1449 1450 1451
f 1449 1451 1452
f 1453 1454 1455
f 1453 1455 1456
f 1457 1458 1459
f 1457 1459 1460
f 1461 1462 1463
f 1461 1463 1464
f 1465 1466 1467
f 1465 1467 1468
f 1469 1470 1471
f 1469 1471 1472
f 1473 1474 1475
f 1473 1475 1476
f 1477 1478 1479
f 1477 1479 1480
f 1481 1482 1483
f 1481 1483 1484
f 1485 1486 1487
f 1485 1487 1488
f 1489 1490 1491
f 1489 1491 1492
f 1493 1494 1495
f 1493 1495 1496
f 1497 1498 1499
f 1497 1499 1500
f 1501 1502 1503
f 1501 1503 1504
f 1505 1506 1507
f 1505 1507 1508
f 1509 1510 1511
f 1509 1511 1512
f 1513 1514 1515
f 1513 1515 1516
f 1517 1518 1519
f 1517 1519 1520
f 1521 1522 1523
f 1521 1523 1524
f 1525 1526 1527
f 1525 1527 1528
f 1529 1530 1531
f 1529 1531 1532
f 1533 1534 1535
f 1533 1535 1536
f 1537 1538 1539
f 1537 1539 1540
f 1541 1542 1543
f 1541 1543 1544
f 1545 1546 1547
f 1545 1547 1548
f 1549 1550 1551
f 1549 1551 1552
f 1553 1554 1555
f 1553 1555 1556
f 1557 1558 1559
f 1557 1559 1560
f 1561 1562 1563
f 1561 1563 1564
f 1565 1566 1567
f 1565 1567 1568
f 1569 1570 1571
f 1569 1571 1572
f 1573 1574 1575
f 1573 1575 1576
f 1577 1578 1579
f 1577 1579 1580
f 1581 1582 1583
f 1581 1583 1584
f 1585 1586 1587
f 1585 1587 1588
f 1589 1590 1591
f 1589 1591 1592
f 1593 1594 1595
f 1593 1595 1596
f 1597 1598 1599
f 1597 1599 1600
f 1601 1602 1603
f 1601 1603 1604
f 1605 1606 1607
f 1605 1607 1608
