# Generated by procedural_engine
v -2.843922 -4.893805 -0.500000
v -0.327664 -4.893805 -0.500000
v -0.327664 4.628319 -0.500000
v -2.843922 4.628319 -0.500000
v -2.843922 -4.893805 0.500000
v -0.327664 -4.893805 0.500000
v -0.327664 4.628319 0.500000
v -2.843922 4.628319 0.500000
v -0.997981 1.725127 0.050000
v -0.947992 1.726200 0.050000
v -0.887962 -1.070260 0.050000
v -0.937951 -1.071333 0.050000
v -0.997981 1.725127 -0.050000
v -0.947992 1.726200 -0.050000
v -0.887962 -1.070260 -0.050000
v -0.937951 -1.071333 -0.050000
v -2.859505 -4.290062 0.050000
v -2.898374 -4.258611 0.050000
v -1.802827 -2.904629 0.050000
v -1.763957 -2.936079 0.050000
v -2.859505 -4.290062 -0.050000
v -2.898374 -4.258611 -0.050000
v -1.802827 -2.904629 -0.050000
v -1.763957 -2.936079 -0.050000
v -1.770658 4.891322 0.050000
v -1.726090 4.913988 0.050000
v -0.425440 2.356465 0.050000
v -0.470008 2.333800 0.050000
v -1.770658 4.891322 -0.050000
v -1.726090 4.913988 -0.050000
v -0.425440 2.356465 -0.050000
v -0.470008 2.333800 -0.050000
v -2.668847 -3.592920 0.050000
v -2.718847 -3.592920 0.050000
v -2.718847 -1.539823 0.050000
v -2.668847 -1.539823 0.050000
v -2.668847 -3.592920 -0.050000
v -2.718847 -3.592920 -0.050000
v -2.718847 -1.539823 -0.050000
v -2.668847 -1.539823 -0.050000
v -2.478752 -1.017699 0.050000
v -2.528752 -1.017699 0.050000
v -2.528752 0.734513 0.050000
v -2.478752 0.734513 0.050000
v -2.478752 -1.017699 -0.050000
v -2.528752 -1.017699 -0.050000
v -2.528752 0.734513 -0.050000
v -2.478752 0.734513 -0.050000
v -2.444868 2.355390 0.050000
v -2.492601 2.370273 0.050000
v -1.877294 4.343725 0.050000
v -1.829560 4.328842 0.050000
v -2.444868 2.355390 -0.050000
v -2.492601 2.370273 -0.050000
v -1.877294 4.343725 -0.050000
v -1.829560 4.328842 -0.050000
v -2.778185 1.605472 0.050000
v -2.819614 1.633466 0.050000
v -1.288849 3.898952 0.050000
v -1.247419 3.870959 0.050000
v -2.778185 1.605472 -0.050000
v -2.819614 1.633466 -0.050000
v -1.288849 3.898952 -0.050000
v -1.247419 3.870959 -0.050000
v -2.824492 -4.334315 0.050000
v -2.863352 -4.302853 0.050000
v -1.752797 -2.931171 0.050000
v -1.713937 -2.962634 0.050000
v -2.824492 -4.334315 -0.050000
v -2.863352 -4.302853 -0.050000
v -1.752797 -2.931171 -0.050000
v -1.713937 -2.962634 -0.050000
v -2.654399 -3.944926 0.050000
v -2.693274 -3.913481 0.050000
v -1.812834 -2.824986 0.050000
v -1.773959 -2.856430 0.050000
v -2.654399 -3.944926 -0.050000
v -2.693274 -3.913481 -0.050000
v -1.812834 -2.824986 -0.050000
v -1.773959 -2.856430 -0.050000
v -2.733158 1.570081 0.050000
v -2.774596 1.598060 0.050000
v -1.268843 3.828149 0.050000
v -1.227405 3.800170 0.050000
v -2.733158 1.570081 -0.050000
v -2.774596 1.598060 -0.050000
v -1.268843 3.828149 -0.050000
v -1.227405 3.800170 -0.050000
v -2.683116 1.490460 0.050000
v -2.724588 1.518390 0.050000
v -1.198825 3.783877 0.050000
v -1.157353 3.755946 0.050000
v -2.683116 1.490460 -0.050000
v -2.724588 1.518390 -0.050000
v -1.198825 3.783877 -0.050000
v -1.157353 3.755946 -0.050000
v -2.713152 1.525827 0.050000
v -2.754582 1.553819 0.050000
v -1.253832 3.775058 0.050000
v -1.212401 3.747066 0.050000
v -2.713152 1.525827 -0.050000
v -2.754582 1.553819 -0.050000
v -1.253832 3.775058 -0.050000
v -1.212401 3.747066 -0.050000
v -1.893433 4.344900 0.050000
v -1.843435 4.345366 0.050000
v -1.828428 2.734746 0.050000
v -1.878426 2.734280 0.050000
v -1.893433 4.344900 -0.050000
v -1.843435 4.345366 -0.050000
v -1.828428 2.734746 -0.050000
v -1.878426 2.734280 -0.050000
v -1.647482 4.515739 0.050000
v -1.599141 4.528509 0.050000
v -1.133908 2.767447 0.050000
v -1.182250 2.754677 0.050000
v -1.647482 4.515739 -0.050000
v -1.599141 4.528509 -0.050000
v -1.133908 2.767447 -0.050000
v -1.182250 2.754677 -0.050000
v -1.903438 4.318330 0.050000
v -1.853441 4.318838 0.050000
v -1.803415 -0.610366 0.050000
v -1.853413 -0.610873 0.050000
v -1.903438 4.318330 -0.050000
v -1.853441 4.318838 -0.050000
v -1.803415 -0.610366 -0.050000
v -1.853413 -0.610873 -0.050000
v -2.393709 -0.141593 0.050000
v -2.443709 -0.141593 0.050000
v -2.443709 2.946903 0.050000
v -2.393709 2.946903 0.050000
v -2.393709 -0.141593 -0.050000
v -2.443709 -0.141593 -0.050000
v -2.443709 2.946903 -0.050000
v -2.393709 2.946903 -0.050000
v -2.719424 -4.396244 0.050000
v -2.758314 -4.364818 0.050000
v -1.642757 -2.984287 0.050000
v -1.603867 -3.015713 0.050000
v -2.719424 -4.396244 -0.050000
v -2.758314 -4.364818 -0.050000
v -1.642757 -2.984287 -0.050000
v -1.603867 -3.015713 -0.050000
v -2.658830 -1.722952 0.050000
v -2.698849 -1.692977 0.050000
v -0.822911 0.811448 0.050000
v -0.782892 0.781472 0.050000
v -2.658830 -1.722952 -0.050000
v -2.698849 -1.692977 -0.050000
v -0.822911 0.811448 -0.050000
v -0.782892 0.781472 -0.050000
v -1.845377 -0.588325 0.050000
v -1.821456 -0.544419 0.050000
v -0.505798 -1.261233 0.050000
v -0.529720 -1.305139 0.050000
v -1.845377 -0.588325 -0.050000
v -1.821456 -0.544419 -0.050000
v -0.505798 -1.261233 -0.050000
v -0.529720 -1.305139 -0.050000
v -1.904813 -2.978019 0.050000
v -1.882080 -2.933486 0.050000
v -0.876578 -3.446760 0.050000
v -0.899310 -3.491293 0.050000
v -1.904813 -2.978019 -0.050000
v -1.882080 -2.933486 -0.050000
v -0.876578 -3.446760 -0.050000
v -0.899310 -3.491293 -0.050000
v -2.820673 1.866916 0.050000
v -2.867171 1.885297 0.050000
v -1.866671 4.416270 0.050000
v -1.820172 4.397889 0.050000
v -2.820673 1.866916 -0.050000
v -2.867171 1.885297 -0.050000
v -1.866671 4.416270 -0.050000
v -1.820172 4.397889 -0.050000
v -2.366712 3.084862 0.050000
v -2.340642 3.127528 0.050000
v -0.544744 2.030182 0.050000
v -0.570814 1.987517 0.050000
v -2.366712 3.084862 -0.050000
v -2.340642 3.127528 -0.050000
v -0.544744 2.030182 -0.050000
v -0.570814 1.987517 -0.050000
v -2.818143 1.800254 0.050000
v -2.859695 1.828065 0.050000
v -2.119325 2.934259 0.050000
v -2.077773 2.906449 0.050000
v -2.818143 1.800254 -0.050000
v -2.859695 1.828065 -0.050000
v -2.119325 2.934259 -0.050000
v -2.077773 2.906449 -0.050000
v -2.788167 1.906392 0.050000
v -2.829642 1.934316 0.050000
v -1.363909 4.111307 0.050000
v -1.322434 4.083383 0.050000
v -2.788167 1.906392 -0.050000
v -2.829642 1.934316 -0.050000
v -1.363909 4.111307 -0.050000
v -1.322434 4.083383 -0.050000
v -1.298732 -2.555558 0.050000
v -1.337586 -2.524088 0.050000
v -0.857346 -1.931168 0.050000
v -0.818492 -1.962638 0.050000
v -1.298732 -2.555558 -0.050000
v -1.337586 -2.524088 -0.050000
v -0.857346 -1.931168 -0.050000
v -0.818492 -1.962638 -0.050000
v -1.587468 4.400753 0.050000
v -1.539095 4.413407 0.050000
v -1.103878 2.749690 0.050000
v -1.152250 2.737036 0.050000
v -1.587468 4.400753 -0.050000
v -1.539095 4.413407 -0.050000
v -1.103878 2.749690 -0.050000
v -1.152250 2.737036 -0.050000
v -2.289793 2.594318 0.050000
v -2.337520 2.609222 0.050000
v -1.652178 4.803912 0.050000
v -1.604451 4.789008 0.050000
v -2.289793 2.594318 -0.050000
v -2.337520 2.609222 -0.050000
v -1.652178 4.803912 -0.050000
v -1.604451 4.789008 -0.050000
v -0.867916 1.618964 0.050000
v -0.817927 1.619974 0.050000
v -0.772904 -0.610115 0.050000
v -0.822894 -0.611124 0.050000
v -0.867916 1.618964 -0.050000
v -0.817927 1.619974 -0.050000
v -0.772904 -0.610115 -0.050000
v -0.822894 -0.611124 -0.050000
v -2.804485 -4.422815 0.050000
v -2.843339 -4.391345 0.050000
v -1.882859 -3.205504 0.050000
v -1.844005 -3.236974 0.050000
v -2.804485 -4.422815 -0.050000
v -2.843339 -4.391345 -0.050000
v -1.882859 -3.205504 -0.050000
v -1.844005 -3.236974 -0.050000
v -1.853413 -0.026819 0.050000
v -1.803416 -0.026278 0.050000
v -1.768398 -3.265216 0.050000
v -1.818395 -3.265757 0.050000
v -1.853413 -0.026819 -0.050000
v -1.803416 -0.026278 -0.050000
v -1.768398 -3.265216 -0.050000
v -1.818395 -3.265757 -0.050000
v -2.819464 -4.325434 0.050000
v -2.858375 -4.294035 0.050000
v -1.872882 -3.072796 0.050000
v -1.833971 -3.104195 0.050000
v -2.819464 -4.325434 -0.050000
v -2.858375 -4.294035 -0.050000
v -1.872882 -3.072796 -0.050000
v -1.833971 -3.104195 -0.050000
v -2.544931 2.204906 0.050000
v -2.592638 2.219873 0.050000
v -2.062373 3.910138 0.050000
v -2.014666 3.895172 0.050000
v -2.544931 2.204906 -0.050000
v -2.592638 2.219873 -0.050000
v -2.062373 3.910138 -0.050000
v -2.014666 3.895172 -0.050000
v -1.648310 2.088232 0.050000
v -1.598313 2.088759 0.050000
v -1.573301 -0.282922 0.050000
v -1.623298 -0.283449 0.050000
v -1.648310 2.088232 -0.050000
v -1.598313 2.088759 -0.050000
v -1.573301 -0.282922 -0.050000
v -1.623298 -0.283449 -0.050000
v -2.803158 1.835620 0.050000
v -2.844666 1.863495 0.050000
v -1.453971 3.934292 0.050000
v -1.412462 3.906416 0.050000
v -2.803158 1.835620 -0.050000
v -2.844666 1.863495 -0.050000
v -1.453971 3.934292 -0.050000
v -1.412462 3.906416 -0.050000
v -2.643840 -1.749524 0.050000
v -2.683824 -1.719503 0.050000
v -1.813389 -0.560211 0.050000
v -1.773405 -0.590232 0.050000
v -2.643840 -1.749524 -0.050000
v -2.683824 -1.719503 -0.050000
v -1.813389 -0.560211 -0.050000
v -1.773405 -0.590232 -0.050000
v -1.626326 3.022905 0.050000
v -1.600288 3.065590 0.050000
v -0.439707 2.357626 0.050000
v -0.465745 2.314941 0.050000
v -1.626326 3.022905 -0.050000
v -1.600288 3.065590 -0.050000
v -0.439707 2.357626 -0.050000
v -0.465745 2.314941 -0.050000
v -1.523245 2.017235 0.050000
v -1.473253 2.018163 0.050000
v -1.438236 0.133208 0.050000
v -1.488227 0.132279 0.050000
v -1.523245 2.017235 -0.050000
v -1.473253 2.018163 -0.050000
v -1.438236 0.133208 -0.050000
v -1.488227 0.132279 -0.050000
v -1.506681 3.014315 0.050000
v -1.479812 3.056482 0.050000
v -0.424285 2.383916 0.050000
v -0.451153 2.341748 0.050000
v -1.506681 3.014315 -0.050000
v -1.479812 3.056482 -0.050000
v -0.424285 2.383916 -0.050000
v -0.451153 2.341748 -0.050000
v -1.827579 4.604257 0.050000
v -1.779225 4.616982 0.050000
v -1.374022 3.077159 0.050000
v -1.422376 3.064434 0.050000
v -1.827579 4.604257 -0.050000
v -1.779225 4.616982 -0.050000
v -1.374022 3.077159 -0.050000
v -1.422376 3.064434 -0.050000
v -1.743358 2.150183 0.050000
v -1.693361 2.150702 0.050000
v -1.668348 -0.256377 0.050000
v -1.718345 -0.256897 0.050000
v -1.743358 2.150183 -0.050000
v -1.693361 2.150702 -0.050000
v -1.668348 -0.256377 -0.050000
v -1.718345 -0.256897 -0.050000
v -1.824698 -2.924960 0.050000
v -1.802115 -2.880350 0.050000
v -0.246337 -3.667961 0.050000
v -0.268921 -3.712570 0.050000
v -1.824698 -2.924960 -0.050000
v -1.802115 -2.880350 -0.050000
v -0.246337 -3.667961 -0.050000
v -0.268921 -3.712570 -0.050000
v -2.129636 3.267136 0.050000
v -2.177517 3.281537 0.050000
v -1.762310 4.662068 0.050000
v -1.714429 4.647667 0.050000
v -2.129636 3.267136 -0.050000
v -2.177517 3.281537 -0.050000
v -1.762310 4.662068 -0.050000
v -1.714429 4.647667 -0.050000
v -2.128550 3.796188 0.050000
v -2.078553 3.796732 0.050000
v -2.063546 2.416201 0.050000
v -2.113543 2.415657 0.050000
v -2.128550 3.796188 -0.050000
v -2.078553 3.796732 -0.050000
v -2.063546 2.416201 -0.050000
v -2.113543 2.415657 -0.050000
v -2.103539 1.911310 0.050000
v -2.053540 1.911699 0.050000
v -2.038533 -0.017505 0.050000
v -2.088531 -0.017894 0.050000
v -2.103539 1.911310 -0.050000
v -2.053540 1.911699 -0.050000
v -2.038533 -0.017505 -0.050000
v -2.088531 -0.017894 -0.050000
v -2.003488 0.654621 0.050000
v -1.953490 0.655113 0.050000
v -1.943485 -0.362586 0.050000
v -1.993483 -0.363078 0.050000
v -2.003488 0.654621 -0.050000
v -1.953490 0.655113 -0.050000
v -1.943485 -0.362586 -0.050000
v -1.993483 -0.363078 -0.050000
v -2.004821 -3.101934 0.050000
v -1.982173 -3.057358 0.050000
v -0.536450 -3.791871 0.050000
v -0.559098 -3.836448 0.050000
v -2.004821 -3.101934 -0.050000
v -1.982173 -3.057358 -0.050000
v -0.536450 -3.791871 -0.050000
v -0.559098 -3.836448 -0.050000
v -2.558319 0.313082 0.050000
v -2.599260 0.341785 0.050000
v -1.488705 1.925856 0.050000
v -1.447764 1.897153 0.050000
v -2.558319 0.313082 -0.050000
v -2.599260 0.341785 -0.050000
v -1.488705 1.925856 -0.050000
v -1.447764 1.897153 -0.050000
v -2.388707 -0.911504 0.050000
v -2.438707 -0.911504 0.050000
v -2.438707 -0.070796 0.050000
v -2.388707 -0.070796 0.050000
v -2.388707 -0.911504 -0.050000
v -2.438707 -0.911504 -0.050000
v -2.438707 -0.070796 -0.050000
v -2.388707 -0.070796 -0.050000
v -2.219680 2.700769 0.050000
v -2.267564 2.715160 0.050000
v -1.847354 4.113390 0.050000
v -1.799470 4.098999 0.050000
v -2.219680 2.700769 -0.050000
v -2.267564 2.715160 -0.050000
v -1.847354 4.113390 -0.050000
v -1.799470 4.098999 -0.050000
v -2.117162 3.501153 0.050000
v -2.089941 3.543094 0.050000
v -0.549171 2.543094 0.050000
v -0.576392 2.501153 0.050000
v -2.117162 3.501153 -0.050000
v -2.089941 3.543094 -0.050000
v -0.549171 2.543094 -0.050000
v -0.576392 2.501153 -0.050000
v -2.728147 1.587793 0.050000
v -2.769602 1.615747 0.050000
v -1.253844 3.863535 0.050000
v -1.212389 3.835580 0.050000
v -2.728147 1.587793 -0.050000
v -2.769602 1.615747 -0.050000
v -1.253844 3.863535 -0.050000
v -1.212389 3.835580 -0.050000
v -2.778161 2.003737 0.050000
v -2.819637 2.031661 0.050000
v -1.759107 3.606882 0.050000
v -1.717631 3.578958 0.050000
v -2.778161 2.003737 -0.050000
v -2.819637 2.031661 -0.050000
v -1.759107 3.606882 -0.050000
v -1.717631 3.578958 -0.050000
v -2.563318 0.490078 0.050000
v -2.604265 0.518772 0.050000
v -1.853890 1.589568 0.050000
v -1.812943 1.560874 0.050000
v -2.563318 0.490078 -0.050000
v -2.604265 0.518772 -0.050000
v -1.853890 1.589568 -0.050000
v -1.812943 1.560874 -0.050000
v -1.083024 1.884467 0.050000
v -1.033034 1.885445 0.050000
v -0.942989 -2.716325 0.050000
v -0.992979 -2.717303 0.050000
v -1.083024 1.884467 -0.050000
v -1.033034 1.885445 -0.050000
v -0.942989 -2.716325 -0.050000
v -0.992979 -2.717303 -0.050000
v -1.337247 4.028716 0.050000
v -1.289066 4.042080 0.050000
v -0.893869 2.617302 0.050000
v -0.942049 2.603937 0.050000
v -1.337247 4.028716 -0.050000
v -1.289066 4.042080 -0.050000
v -0.893869 2.617302 -0.050000
v -0.942049 2.603937 -0.050000
v -2.284801 2.603135 0.050000
v -2.332508 2.618104 0.050000
v -1.652167 4.786246 0.050000
v -1.604461 4.771276 0.050000
v -2.284801 2.603135 -0.050000
v -2.332508 2.618104 -0.050000
v -1.652167 4.786246 -0.050000
v -1.604461 4.771276 -0.050000
v -1.061023 1.722008 0.050000
v -1.035025 1.764718 0.050000
v -0.569793 1.481532 0.050000
v -0.595790 1.438822 0.050000
v -1.061023 1.722008 -0.050000
v -1.035025 1.764718 -0.050000
v -0.569793 1.481532 -0.050000
v -0.595790 1.438822 -0.050000
v -2.864476 -4.290024 0.050000
v -2.903407 -4.258649 0.050000
v -1.847880 -2.948914 0.050000
v -1.808949 -2.980289 0.050000
v -2.864476 -4.290024 -0.050000
v -2.903407 -4.258649 -0.050000
v -1.847880 -2.948914 -0.050000
v -1.808949 -2.980289 -0.050000
v -2.589962 2.151780 0.050000
v -2.637652 2.166804 0.050000
v -2.102384 3.865919 0.050000
v -2.054694 3.850895 0.050000
v -2.589962 2.151780 -0.050000
v -2.637652 2.166804 -0.050000
v -2.102384 3.865919 -0.050000
v -2.054694 3.850895 -0.050000
v -1.471108 1.164413 0.050000
v -1.445351 1.207268 0.050000
v -0.664961 0.738242 0.050000
v -0.690717 0.695386 0.050000
v -1.471108 1.164413 -0.050000
v -1.445351 1.207268 -0.050000
v -0.664961 0.738242 -0.050000
v -0.690717 0.695386 -0.050000
v -1.262237 3.869524 0.050000
v -1.214001 3.882688 0.050000
v -0.863826 2.599502 0.050000
v -0.912062 2.586339 0.050000
v -1.262237 3.869524 -0.050000
v -1.214001 3.882688 -0.050000
v -0.863826 2.599502 -0.050000
v -0.912062 2.586339 -0.050000
v -1.822575 4.462659 0.050000
v -1.774224 4.475394 0.050000
v -1.364018 2.917872 0.050000
v -1.412370 2.905137 0.050000
v -1.822575 4.462659 -0.050000
v -1.774224 4.475394 -0.050000
v -1.364018 2.917872 -0.050000
v -1.412370 2.905137 -0.050000
v -2.679410 -4.272357 0.050000
v -2.718289 -4.240917 0.050000
v -1.687773 -2.966581 0.050000
v -1.648895 -2.998021 0.050000
v -2.679410 -4.272357 -0.050000
v -2.718289 -4.240917 -0.050000
v -1.687773 -2.966581 -0.050000
v -1.648895 -2.998021 -0.050000
g shell
f 1 3 2
f 1 4 3
f 5 6 7
f 5 7 8
f 1 2 6
f 1 6 5
f 4 7 3
f 4 8 7
f 1 5 8
f 1 8 4
f 2 3 7
f 2 7 6
g beams
f 9 10 11
f 9 11 12
f 13 15 14
f 13 16 15
f 9 13 14
f 9 14 10
f 11 15 16
f 11 16 12
f 9 12 16
f 9 16 13
f 10 14 15
f 10 15 11
f 17 18 19
f 17 19 20
f 21 23 22
f 21 24 23
f 17 21 22
f 17 22 18
f 19 23 24
f 19 24 20
f 17 20 24
f 17 24 21
f 18 22 23
f 18 23 19
f 25 26 27
f 25 27 28
f 29 31 30
f 29 32 31
f 25 29 30
f 25 30 26
f 27 31 32
f 27 32 28
f 25 28 32
f 25 32 29
f 26 30 31
f 26 31 27
f 33 34 35
f 33 35 36
f 37 39 38
f 37 40 39
f 33 37 38
f 33 38 34
f 35 39 40
f 35 40 36
f 33 36 40
f 33 40 37
f 34 38 39
f 34 39 35
f 41 42 43
f 41 43 44
f 45 47 46
f 45 48 47
f 41 45 46
f 41 46 42
f 43 47 48
f 43 48 44
f 41 44 48
f 41 48 45
f 42 46 47
f 42 47 43
f 49 50 51
f 49 51 52
f 53 55 54
f 53 56 55
f 49 53 54
f 49 54 50
f 51 55 56
f 51 56 52
f 49 52 56
f 49 56 53
f 50 54 55
f 50 55 51
f 57 58 59
f 57 59 60
f 61 63 62
f 61 64 63
f 57 61 62
f 57 62 58
f 59 63 64
f 59 64 60
f 57 60 64
f 57 64 61
f 58 62 63
f 58 63 59
f 65 66 67
f 65 67 68
f 69 71 70
f 69 72 71
f 65 69 70
f 65 70 66
f 67 71 72
f 67 72 68
f 65 68 72
f 65 72 69
f 66 70 71
f 66 71 67
f 73 74 75
f 73 75 76
f 77 79 78
f 77 80 79
f 73 77 78
f 73 78 74
f 75 79 80
f 75 80 76
f 73 76 80
f 73 80 77
f 74 78 79
f 74 79 75
f 81 82 83
f 81 83 84
f 85 87 86
f 85 88 87
f 81 85 86
f 81 86 82
f 83 87 88
f 83 88 84
f 81 84 88
f 81 88 85
f 82 86 87
f 82 87 83
f 89 90 91
f 89 91 92
f 93 95 94
f 93 96 95
f 89 93 94
f 89 94 90
f 91 95 96
f 91 96 92
f 89 92 96
f 89 96 93
f 90 94 95
f 90 95 91
f 97 98 99
f 97 99 100
f 101 103 102
f 101 104 103
f 97 101 102
f 97 102 98
f 99 103 104
f 99 104 100
f 97 100 104
f 97 104 101
f 98 102 103
f 98 103 99
f 105 106 107
f 105 107 108
f 109 111 110
f 109 112 111
f 105 109 110
f 105 110 106
f 107 111 112
f 107 112 108
f 105 108 112
f 105 112 109
f 106 110 111
f 106 111 107
f 113 114 115
f 113 115 116
f 117 119 118
f 117 120 119
f 113 117 118
f 113 118 114
f 115 119 120
f 115 120 116
f 113 116 120
f 113 120 117
f 114 118 119
f 114 119 115
f 121 122 123
f 121 123 124
f 125 127 126
f 125 128 127
f 121 125 126
f 121 126 122
f 123 127 128
f 123 128 124
f 121 124 128
f 121 128 125
f 122 126 127
f 122 127 123
f 129 130 131
f 129 131 132
f 133 135 134
f 133 136 135
f 129 133 134
f 129 134 130
f 131 135 136
f 131 136 132
f 129 132 136
f 129 136 133
f 130 134 135
f 130 135 131
f 137 138 139
f 137 139 140
f 141 143 142
f 141 144 143
f 137 141 142
f 137 142 138
f 139 143 144
f 139 144 140
f 137 140 144
f 137 144 141
f 138 142 143
f 138 143 139
f 145 146 147
f 145 147 148
f 149 151 150
f 149 152 151
f 145 149 150
f 145 150 146
f 147 151 152
f 147 152 148
f 145 148 152
f 145 152 149
f 146 150 151
f 146 151 147
f 153 154 155
f 153 155 156
f 157 159 158
f 157 160 159
f 153 157 158
f 153 158 154
f 155 159 160
f 155 160 156
f 153 156 160
f 153 160 157
f 154 158 159
f 154 159 155
f 161 162 163
f 161 163 164
f 165 167 166
f 165 168 167
f 161 165 166
f 161 166 162
f 163 167 168
f 163 168 164
f 161 164 168
f 161 168 165
f 162 166 167
f 162 167 163
f 169 170 171
f 169 171 172
f 173 175 174
f 173 176 175
f 169 173 174
f 169 174 170
f 171 175 176
f 171 176 172
f 169 172 176
f 169 176 173
f 170 174 175
f 170 175 171
f 177 178 179
f 177 179 180
f 181 183 182
f 181 184 183
f 177 181 182
f 177 182 178
f 179 183 184
f 179 184 180
f 177 180 184
f 177 184 181
f 178 182 183
f 178 183 179
f 185 186 187
f 185 187 188
f 189 191 190
f 189 192 191
f 185 189 190
f 185 190 186
f 187 191 192
f 187 192 188
f 185 188 192
f 185 192 189
f 186 190 191
f 186 191 187
f 193 194 195
f 193 195 196
f 197 199 198
f 197 200 199
f 193 197 198
f 193 198 194
f 195 199 200
f 195 200 196
f 193 196 200
f 193 200 197
f 194 198 199
f 194 199 195
f 201 202 203
f 201 203 204
f 205 207 206
f 205 208 207
f 201 205 206
f 201 206 202
f 203 207 208
f 203 208 204
f 201 204 208
f 201 208 205
f 202 206 207
f 202 207 203
f 209 210 211
f 209 211 212
f 213 215 214
f 213 216 215
f 209 213 214
f 209 214 210
f 211 215 216
f 211 216 212
f 209 212 216
f 209 216 213
f 210 214 215
f 210 215 211
f 217 218 219
f 217 219 220
f 221 223 222
f 221 224 223
f 217 221 222
f 217 222 218
f 219 223 224
f 219 224 220
f 217 220 224
f 217 224 221
f 218 222 223
f 218 223 219
f 225 226 227
f 225 227 228
f 229 231 230
f 229 232 231
f 225 229 230
f 225 230 226
f 227 231 232
f 227 232 228
f 225 228 232
f 225 232 229
f 226 230 231
f 226 231 227
f 233 234 235
f 233 235 236
f 237 239 238
f 237 240 239
f 233 237 238
f 233 238 234
f 235 239 240
f 235 240 236
f 233 236 240
f 233 240 237
f 234 238 239
f 234 239 235
f 241 242 243
f 241 243 244
f 245 247 246
f 245 248 247
f 241 245 246
f 241 246 242
f 243 247 248
f 243 248 244
f 241 244 248
f 241 248 245
f 242 246 247
f 242 247 243
f 249 250 251
f 249 251 252
f 253 255 254
f 253 256 255
f 249 253 254
f 249 254 250
f 251 255 256
f 251 256 252
f 249 252 256
f 249 256 253
f 250 254 255
f 250 255 251
f 257 258 259
f 257 259 260
f 261 263 262
f 261 264 263
f 257 261 262
f 257 262 258
f 259 263 264
f 259 264 260
f 257 260 264
f 257 264 261
f 258 262 263
f 258 263 259
f 265 266 267
f 265 267 268
f 269 271 270
f 269 272 271
f 265 269 270
f 265 270 266
f 267 271 272
f 267 272 268
f 265 268 272
f 265 272 269
f 266 270 271
f 266 271 267
f 273 274 275
f 273 275 276
f 277 279 278
f 277 280 279
f 273 277 278
f 273 278 274
f 275 279 280
f 275 280 276
f 273 276 280
f 273 280 277
f 274 278 279
f 274 279 275
f 281 282 283
f 281 283 284
f 285 287 286
f 285 288 287
f 281 285 286
f 281 286 282
f 283 287 288
f 283 288 284
f 281 284 288
f 281 288 285
f 282 286 287
f 282 287 283
f 289 290 291
f 289 291 292
f 293 295 294
f 293 296 295
f 289 293 294
f 289 294 290
f 291 295 296
f 291 296 292
f 289 292 296
f 289 296 293
f 290 294 295
f 290 295 291
f 297 298 299
f 297 299 300
f 301 303 302
f 301 304 303
f 297 301 302
f 297 302 298
f 299 303 304
f 299 304 300
f 297 300 304
f 297 304 301
f 298 302 303
f 298 303 299
f 305 306 307
f 305 307 308
f 309 311 310
f 309 312 311
f 305 309 310
f 305 310 306
f 307 311 312
f 307 312 308
f 305 308 312
f 305 312 309
f 306 310 311
f 306 311 307
f 313 314 315
f 313 315 316
f 317 319 318
f 317 320 319
f 313 317 318
f 313 318 314
f 315 319 320
f 315 320 316
f 313 316 320
f 313 320 317
f 314 318 319
f 314 319 315
f 321 322 323
f 321 323 324
f 325 327 326
f 325 328 327
f 321 325 326
f 321 326 322
f 323 327 328
f 323 328 324
f 321 324 328
f 321 328 325
f 322 326 327
f 322 327 323
f 329 330 331
f 329 331 332
f 333 335 334
f 333 336 335
f 329 333 334
f 329 334 330
f 331 335 336
f 331 336 332
f 329 332 336
f 329 336 333
f 330 334 335
f 330 335 331
f 337 338 339
f 337 339 340
f 341 343 342
f 341 344 343
f 337 341 342
f 337 342 338
f 339 343 344
f 339 344 340
f 337 340 344
f 337 344 341
f 338 342 343
f 338 343 339
f 345 346 347
f 345 347 348
f 349 351 350
f 349 352 351
f 345 349 350
f 345 350 346
f 347 351 352
f 347 352 348
f 345 348 352
f 345 352 349
f 346 350 351
f 346 351 347
f 353 354 355
f 353 355 356
f 357 359 358
f 357 360 359
f 353 357 358
f 353 358 354
f 355 359 360
f 355 360 356
f 353 356 360
f 353 360 357
f 354 358 359
f 354 359 355
f 361 362 363
f 361 363 364
f 365 367 366
f 365 368 367
f 361 365 366
f 361 366 362
f 363 367 368
f 363 368 364
f 361 364 368
f 361 368 365
f 362 366 367
f 362 367 363
f 369 370 371
f 369 371 372
f 373 375 374
f 373 376 375
f 369 373 374
f 369 374 370
f 371 375 376
f 371 376 372
f 369 372 376
f 369 376 373
f 370 374 375
f 370 375 371
f 377 378 379
f 377 379 380
f 381 383 382
f 381 384 383
f 377 381 382
f 377 382 378
f 379 383 384
f 379 384 380
f 377 380 384
f 377 384 381
f 378 382 383
f 378 383 379
f 385 386 387
f 385 387 388
f 389 391 390
f 389 392 391
f 385 389 390
f 385 390 386
f 387 391 392
f 387 392 388
f 385 388 392
f 385 392 389
f 386 390 391
f 386 391 387
f 393 394 395
f 393 395 396
f 397 399 398
f 397 400 399
f 393 397 398
f 393 398 394
f 395 399 400
f 395 400 396
f 393 396 400
f 393 400 397
f 394 398 399
f 394 399 395
f 401 402 403
f 401 403 404
f 405 407 406
f 405 408 407
f 401 405 406
f 401 406 402
f 403 407 408
f 403 408 404
f 401 404 408
f 401 408 405
f 402 406 407
f 402 407 403
f 409 410 411
f 409 411 412
f 413 415 414
f 413 416 415
f 409 413 414
f 409 414 410
f 411 415 416
f 411 416 412
f 409 412 416
f 409 416 413
f 410 414 415
f 410 415 411
f 417 418 419
f 417 419 420
f 421 423 422
f 421 424 423
f 417 421 422
f 417 422 418
f 419 423 424
f 419 424 420
f 417 420 424
f 417 424 421
f 418 422 423
f 418 423 419
f 425 426 427
f 425 427 428
f 429 431 430
f 429 432 431
f 425 429 430
f 425 430 426
f 427 431 432
f 427 432 428
f 425 428 432
f 425 432 429
f 426 430 431
f 426 431 427
f 433 434 435
f 433 435 436
f 437 439 438
f 437 440 439
f 433 437 438
f 433 438 434
f 435 439 440
f 435 440 436
f 433 436 440
f 433 440 437
f 434 438 439
f 434 439 435
f 441 442 443
f 441 443 444
f 445 447 446
f 445 448 447
f 441 445 446
f 441 446 442
f 443 447 448
f 443 448 444
f 441 444 448
f 441 448 445
f 442 446 447
f 442 447 443
f 449 450 451
f 449 451 452
f 453 455 454
f 453 456 455
f 449 453 454
f 449 454 450
f 451 455 456
f 451 456 452
f 449 452 456
f 449 456 453
f 450 454 455
f 450 455 451
f 457 458 459
f 457 459 460
f 461 463 462
f 461 464 463
f 457 461 462
f 457 462 458
f 459 463 464
f 459 464 460
f 457 460 464
f 457 464 461
f 458 462 463
f 458 463 459
f 465 466 467
f 465 467 468
f 469 471 470
f 469 472 471
f 465 469 470
f 465 470 466
f 467 471 472
f 467 472 468
f 465 468 472
f 465 472 469
f 466 470 471
f 466 471 467
f 473 474 475
f 473 475 476
f 477 479 478
f 477 480 479
f 473 477 478
f 473 478 474
f 475 479 480
f 475 480 476
f 473 476 480
f 473 480 477
f 474 478 479
f 474 479 475
f 481 482 483
f 481 483 484
f 485 487 486
f 485 488 487
f 481 485 486
f 481 486 482
f 483 487 488
f 483 488 484
f 481 484 488
f 481 488 485
f 482 486 487
f 482 487 483
f 489 490 491
f 489 491 492
f 493 495 494
f 493 496 495
f 489 493 494
f 489 494 490
f 491 495 496
f 491 496 492
f 489 492 496
f 489 496 493
f 490 494 495
f 490 495 491
f 497 498 499
f 497 499 500
f 501 503 502
f 501 504 503
f 497 501 502
f 497 502 498
f 499 503 504
f 499 504 500
f 497 500 504
f 497 504 501
f 498 502 503
f 498 503 499
f 505 506 507
f 505 507 508
f 509 511 510
f 509 512 511
f 505 509 510
f 505 510 506
f 507 511 512
f 507 512 508
f 505 508 512
f 505 512 509
f 506 510 511
f 506 511 507
